<svg xmlns="http://www.w3.org/2000/svg" width="165" height="33" fill="none"><rect width="32.136" height="32.136" x=".754" y=".131" fill="#17306C" rx="2.298"/><g filter="url(#a)"><path fill="#fff" d="M8.788 8.452c0-.318.258-.575.575-.575h3.442c.317 0 .574.257.574.574v4.017H9.363a.575.575 0 0 1-.575-.575z"/></g><g filter="url(#b)"><path fill="#fff" d="M13.953 8.452c0-.318.257-.575.574-.575h9.467c.318 0 .575.257.575.574v3.442a.575.575 0 0 1-.575.575h-3.728a.574.574 0 0 0-.575.574v9.18a.575.575 0 0 1-.574.575h-4.59a.575.575 0 0 1-.574-.574z"/></g><path fill="#262626" d="M52.32 30.215q-3.118 0-4.996-1.519t-1.878-5.395V14.67h-3.397v-4.276h3.397l.6-5.315h4.515v5.315h5.355v4.276h-5.355v8.672q0 1.44.6 1.998.639.52 2.158.52h2.477v4.356zm16.313.48q-2.997 0-5.315-1.28a9.26 9.26 0 0 1-3.637-3.596q-1.32-2.317-1.319-5.355 0-3.078 1.28-5.475 1.317-2.399 3.596-3.717 2.318-1.359 5.435-1.359 2.917 0 5.155 1.28a9 9 0 0 1 3.477 3.516q1.28 2.198 1.279 4.916 0 .44-.04.919 0 .48-.04.999H63.438q.16 2.317 1.598 3.636 1.48 1.32 3.557 1.32 1.558 0 2.598-.68a4.4 4.4 0 0 0 1.598-1.838h5.195a9.5 9.5 0 0 1-1.878 3.436q-1.278 1.52-3.197 2.398-1.879.88-4.276.88m.04-16.626q-1.878 0-3.317 1.08-1.44 1.038-1.838 3.197h9.87q-.12-1.959-1.438-3.117-1.32-1.16-3.277-1.16m13.414 16.146V10.393h4.516l.4 3.357a7 7 0 0 1 2.637-2.798q1.758-1.039 4.116-1.039 3.676 0 5.715 2.318t2.038 6.794v11.19h-5.115v-10.71q0-2.558-1.04-3.917-1.037-1.359-3.236-1.359-2.158 0-3.557 1.519-1.359 1.518-1.359 4.236v10.23zm32.626.48q-2.797 0-4.995-1.36-2.198-1.358-3.477-3.716-1.28-2.358-1.279-5.355 0-2.997 1.279-5.315 1.279-2.358 3.477-3.677 2.197-1.359 4.995-1.359 2.238 0 3.917.84a7.05 7.05 0 0 1 2.717 2.357V1.441h5.116v28.774h-4.556l-.56-2.838q-.959 1.32-2.557 2.318-1.558 1-4.077 1m1.079-4.477q2.478 0 4.037-1.638 1.598-1.678 1.598-4.276t-1.598-4.236q-1.559-1.68-4.037-1.679-2.437 0-4.036 1.639-1.599 1.638-1.599 4.236t1.599 4.276 4.036 1.678m15.08 3.997V10.393h4.556l.48 3.717a8.2 8.2 0 0 1 2.917-3.038q1.878-1.158 4.396-1.159v5.395h-1.439q-1.679 0-2.997.52-1.319.52-2.078 1.798-.719 1.279-.719 3.557v9.032zm23.239.48q-2.638 0-4.636-.84-1.998-.879-3.197-2.398-1.2-1.518-1.439-3.517h5.155q.24 1.16 1.279 1.999 1.08.8 2.758.799 1.678 0 2.438-.68.798-.679.799-1.558 0-1.278-1.119-1.718-1.119-.48-3.117-.92a34 34 0 0 1-2.598-.679 13.4 13.4 0 0 1-2.438-.999 5.65 5.65 0 0 1-1.758-1.599q-.68-.999-.68-2.437 0-2.638 2.079-4.436 2.118-1.8 5.914-1.799 3.518 0 5.595 1.639 2.118 1.638 2.518 4.516h-4.836q-.44-2.198-3.317-2.198-1.439 0-2.238.56-.759.558-.759 1.398 0 .879 1.159 1.399 1.158.52 3.077.959 2.078.48 3.797 1.079 1.758.56 2.797 1.718 1.04 1.119 1.039 3.237.04 1.84-.959 3.317-.999 1.48-2.877 2.318-1.879.84-4.436.84"/><defs><filter id="a" width="12.591" height="12.592" x="4.788" y="7.877" color-interpolation-filters="sRGB" filterUnits="userSpaceOnUse"><feFlood flood-opacity="0" result="BackgroundImageFix"/><feColorMatrix in="SourceAlpha" result="hardAlpha" values="0 0 0 0 0 0 0 0 0 0 0 0 0 0 0 0 0 0 127 0"/><feOffset dy="4"/><feGaussianBlur stdDeviation="2"/><feComposite in2="hardAlpha" operator="out"/><feColorMatrix values="0 0 0 0 0 0 0 0 0 0 0 0 0 0 0 0 0 0 0.25 0"/><feBlend in2="BackgroundImageFix" result="effect1_dropShadow_2434_21348"/><feBlend in="SourceGraphic" in2="effect1_dropShadow_2434_21348" result="shape"/></filter><filter id="b" width="18.616" height="22.92" x="9.953" y="7.877" color-interpolation-filters="sRGB" filterUnits="userSpaceOnUse"><feFlood flood-opacity="0" result="BackgroundImageFix"/><feColorMatrix in="SourceAlpha" result="hardAlpha" values="0 0 0 0 0 0 0 0 0 0 0 0 0 0 0 0 0 0 127 0"/><feOffset dy="4"/><feGaussianBlur stdDeviation="2"/><feComposite in2="hardAlpha" operator="out"/><feColorMatrix values="0 0 0 0 0 0 0 0 0 0 0 0 0 0 0 0 0 0 0.25 0"/><feBlend in2="BackgroundImageFix" result="effect1_dropShadow_2434_21348"/><feBlend in="SourceGraphic" in2="effect1_dropShadow_2434_21348" result="shape"/></filter></defs></svg>