<svg width="166" height="33" viewBox="0 0 166 33" fill="none" xmlns="http://www.w3.org/2000/svg">
<path d="M31.092 0.130859H3.55203C2.28288 0.130859 1.25403 1.15971 1.25403 2.42886V29.9689C1.25403 31.238 2.28288 32.2669 3.55203 32.2669H31.092C32.3612 32.2669 33.39 31.238 33.39 29.9689V2.42886C33.39 1.15971 32.3612 0.130859 31.092 0.130859Z" fill="white"/>
<g filter="url(#filter0_d_2488_4488)">
<path d="M9.28796 8.45195C9.28796 8.13395 9.54596 7.87695 9.86296 7.87695H13.305C13.622 7.87695 13.879 8.13395 13.879 8.45095V12.468H9.86296C9.71046 12.468 9.56421 12.4074 9.45638 12.2995C9.34854 12.1917 9.28796 12.0455 9.28796 11.893V8.45195Z" fill="#17306C"/>
</g>
<g filter="url(#filter1_d_2488_4488)">
<path d="M14.453 8.45195C14.453 8.13395 14.71 7.87695 15.027 7.87695H24.494C24.812 7.87695 25.069 8.13395 25.069 8.45095V11.893C25.069 12.0455 25.0084 12.1917 24.9006 12.2995C24.7928 12.4074 24.6465 12.468 24.494 12.468H20.766C20.6905 12.4678 20.6158 12.4826 20.546 12.5114C20.4763 12.5401 20.4129 12.5824 20.3595 12.6357C20.3061 12.689 20.2637 12.7524 20.2348 12.8221C20.2059 12.8918 20.191 12.9665 20.191 13.042V22.222C20.191 22.3743 20.1306 22.5204 20.0229 22.6282C19.9153 22.736 19.7693 22.7967 19.617 22.797H15.027C14.8749 22.7967 14.729 22.7361 14.6214 22.6285C14.5138 22.521 14.4533 22.3751 14.453 22.223V8.45195Z" fill="#17306C"/>
</g>
<path d="M52.82 30.2154C50.7413 30.2154 49.076 29.7091 47.824 28.6964C46.572 27.6837 45.9459 25.8854 45.9459 23.3014V14.6704H42.549V10.3944H45.9459L46.546 5.07941H51.061V10.3944H56.416V14.6704H51.061V23.3424C51.061 24.3024 51.2609 24.9684 51.6609 25.3404C52.0869 25.6871 52.8063 25.8604 53.819 25.8604H56.296V30.2164L52.82 30.2154ZM69.133 30.6954C67.135 30.6954 65.3633 30.2687 63.818 29.4154C62.2921 28.582 61.0316 27.3357 60.181 25.8194C59.301 24.2747 58.8613 22.4897 58.8619 20.4644C58.8619 18.4124 59.2886 16.5874 60.1419 14.9894C61.0199 13.3901 62.2186 12.1511 63.7379 11.2724C65.2833 10.3664 67.0949 9.91341 69.1729 9.91341C71.1176 9.91341 72.836 10.3401 74.328 11.1934C75.7925 12.0178 76.997 13.2358 77.805 14.7094C78.6583 16.1747 79.0846 17.8134 79.084 19.6254C79.084 19.9187 79.0706 20.2251 79.0439 20.5444C79.0439 20.8644 79.0306 21.1974 79.0039 21.5434H63.938C64.0446 23.0881 64.5773 24.3001 65.536 25.1794C66.5226 26.0594 67.7083 26.4994 69.093 26.4994C70.1316 26.4994 70.9976 26.2727 71.691 25.8194C72.386 25.3693 72.9398 24.7322 73.289 23.9814H78.484C78.1033 25.2447 77.4638 26.4149 76.606 27.4174C75.754 28.4307 74.6883 29.2301 73.4089 29.8154C72.1563 30.4021 70.731 30.6954 69.133 30.6954ZM69.1729 14.0694C67.9209 14.0694 66.8153 14.4294 65.856 15.1494C64.896 15.8414 64.2833 16.9071 64.018 18.3464H73.888C73.808 17.0404 73.3286 16.0014 72.4499 15.2294C71.5699 14.4561 70.4776 14.0694 69.1729 14.0694ZM82.5869 30.2154V10.3934H87.1029L87.5029 13.7504C88.1036 12.5899 89.017 11.6207 90.1399 10.9524C91.3119 10.2597 92.6839 9.91341 94.2559 9.91341C96.7066 9.91341 98.6116 10.6861 99.971 12.2314C101.33 13.7767 102.01 16.0414 102.009 19.0254V30.2154H96.8939V19.5054C96.8939 17.8001 96.5473 16.4944 95.8539 15.5884C95.1626 14.6824 94.0839 14.2294 92.6179 14.2294C91.1793 14.2294 89.9936 14.7357 89.0609 15.7484C88.1549 16.7604 87.702 18.1724 87.702 19.9844V30.2144L82.5869 30.2154ZM115.213 30.6954C113.348 30.6954 111.683 30.2421 110.218 29.3354C108.753 28.4301 107.594 27.1914 106.741 25.6194C105.888 24.0474 105.461 22.2624 105.462 20.2644C105.462 18.2664 105.888 16.4947 106.741 14.9494C107.594 13.3774 108.753 12.1517 110.218 11.2724C111.683 10.3664 113.348 9.91341 115.213 9.91341C116.705 9.91341 118.011 10.1934 119.13 10.7534C120.224 11.2909 121.16 12.103 121.847 13.1104V1.44141H126.963V30.2154H122.407L121.847 27.3774C121.208 28.2574 120.355 29.0301 119.29 29.6954C118.251 30.3621 116.892 30.6954 115.213 30.6954ZM116.292 26.2184C117.944 26.2184 119.29 25.6724 120.329 24.5804C121.394 23.4617 121.927 22.0364 121.927 20.3044C121.927 18.5724 121.394 17.1604 120.329 16.0684C119.29 14.9484 117.944 14.3887 116.292 14.3894C114.667 14.3894 113.322 14.9357 112.256 16.0284C111.19 17.1204 110.657 18.5324 110.657 20.2644C110.657 21.9964 111.19 23.4217 112.256 24.5404C113.322 25.6591 114.667 26.2184 116.292 26.2184ZM131.372 30.2154V10.3934H135.928L136.408 14.1104C137.099 12.861 138.105 11.8138 139.325 11.0724C140.577 10.3004 142.042 9.91407 143.721 9.91341V15.3084H142.282C141.163 15.3084 140.164 15.4817 139.285 15.8284C138.406 16.1751 137.713 16.7744 137.207 17.6264C136.728 18.4791 136.488 19.6647 136.488 21.1834V30.2154H131.372ZM154.611 30.6954C152.852 30.6954 151.307 30.4154 149.975 29.8554C148.643 29.2694 147.577 28.4701 146.778 27.4574C145.978 26.4454 145.498 25.2731 145.339 23.9404H150.494C150.654 24.7137 151.08 25.3801 151.773 25.9394C152.493 26.4727 153.412 26.7391 154.531 26.7384C155.65 26.7384 156.462 26.5117 156.969 26.0584C157.501 25.6057 157.767 25.0864 157.768 24.5004C157.768 23.6484 157.395 23.0757 156.649 22.7824C155.903 22.4624 154.864 22.1557 153.532 21.8624C152.657 21.6704 151.791 21.4439 150.934 21.1834C150.09 20.9313 149.274 20.5967 148.496 20.1844C147.803 19.7821 147.204 19.237 146.738 18.5854C146.285 17.9194 146.058 17.1071 146.058 16.1484C146.058 14.3897 146.751 12.9111 148.137 11.7124C149.549 10.5124 151.52 9.91274 154.051 9.91341C156.396 9.91341 158.261 10.4597 159.646 11.5524C161.058 12.6444 161.897 14.1497 162.164 16.0684H157.328C157.035 14.6031 155.929 13.8704 154.011 13.8704C153.052 13.8704 152.306 14.0571 151.773 14.4304C151.267 14.8024 151.014 15.2684 151.014 15.8284C151.014 16.4144 151.4 16.8807 152.173 17.2274C152.945 17.5741 153.971 17.8937 155.25 18.1864C156.635 18.5064 157.901 18.8661 159.047 19.2654C160.219 19.6387 161.151 20.2114 161.844 20.9834C162.537 21.7294 162.884 22.8084 162.883 24.2204C162.91 25.4471 162.59 26.5527 161.924 27.5374C161.258 28.5241 160.299 29.2967 159.047 29.8554C157.794 30.4154 156.316 30.6954 154.611 30.6954Z" fill="white"/>
<defs>
<filter id="filter0_d_2488_4488" x="5.28796" y="7.87695" width="12.5909" height="12.5918" filterUnits="userSpaceOnUse" color-interpolation-filters="sRGB">
<feFlood flood-opacity="0" result="BackgroundImageFix"/>
<feColorMatrix in="SourceAlpha" type="matrix" values="0 0 0 0 0 0 0 0 0 0 0 0 0 0 0 0 0 0 127 0" result="hardAlpha"/>
<feOffset dy="4"/>
<feGaussianBlur stdDeviation="2"/>
<feComposite in2="hardAlpha" operator="out"/>
<feColorMatrix type="matrix" values="0 0 0 0 0 0 0 0 0 0 0 0 0 0 0 0 0 0 0.15 0"/>
<feBlend mode="normal" in2="BackgroundImageFix" result="effect1_dropShadow_2488_4488"/>
<feBlend mode="normal" in="SourceGraphic" in2="effect1_dropShadow_2488_4488" result="shape"/>
</filter>
<filter id="filter1_d_2488_4488" x="10.453" y="7.87695" width="18.616" height="22.9199" filterUnits="userSpaceOnUse" color-interpolation-filters="sRGB">
<feFlood flood-opacity="0" result="BackgroundImageFix"/>
<feColorMatrix in="SourceAlpha" type="matrix" values="0 0 0 0 0 0 0 0 0 0 0 0 0 0 0 0 0 0 127 0" result="hardAlpha"/>
<feOffset dy="4"/>
<feGaussianBlur stdDeviation="2"/>
<feComposite in2="hardAlpha" operator="out"/>
<feColorMatrix type="matrix" values="0 0 0 0 0 0 0 0 0 0 0 0 0 0 0 0 0 0 0.15 0"/>
<feBlend mode="normal" in2="BackgroundImageFix" result="effect1_dropShadow_2488_4488"/>
<feBlend mode="normal" in="SourceGraphic" in2="effect1_dropShadow_2488_4488" result="shape"/>
</filter>
</defs>
</svg>
