<svg width="24" height="24" viewBox="0 0 24 24" fill="none" xmlns="http://www.w3.org/2000/svg">
<path d="M0 1.7C0 0.761117 0.761116 0 1.7 0H22.3C23.2389 0 24 0.761116 24 1.7V22.3C24 23.2389 23.2389 24 22.3 24H1.7C0.761117 24 0 23.2389 0 22.3V1.7Z" fill="white"/>
<path d="M6 6.85318C6 6.61846 6.19028 6.42818 6.425 6.42818H8.975C9.20972 6.42818 9.4 6.61846 9.4 6.85319V9.82819H6.425C6.19028 9.82819 6 9.63791 6 9.40318V6.85318Z" fill="#280569"/>
<path d="M9.825 6.85319C9.825 6.61846 10.0153 6.42818 10.25 6.42818H17.2625C17.4972 6.42818 17.6875 6.61846 17.6875 6.85319V9.40318C17.6875 9.63791 17.4972 9.82819 17.2625 9.82819H14.5C14.2653 9.82819 14.075 10.0185 14.075 10.2532V17.0532C14.075 17.2879 13.8847 17.4782 13.65 17.4782H10.25C10.0153 17.4782 9.825 17.2879 9.825 17.0532V6.85319Z" fill="#280569"/>
</svg>
