<svg width="174" height="47" viewBox="0 0 174 47" fill="none" xmlns="http://www.w3.org/2000/svg">
<rect width="45.6167" height="45.6167" rx="3.25833" fill="white"/>
<path d="M11.4043 13.0333C11.4043 12.5835 11.769 12.2188 12.2189 12.2188H17.1064C17.5563 12.2188 17.921 12.5835 17.921 13.0333V18.7354H12.2189C11.769 18.7354 11.4043 18.3707 11.4043 17.9208V13.0333Z" fill="#280569"/>
<path d="M18.7354 13.0333C18.7354 12.5835 19.1001 12.2188 19.5499 12.2188H26.8812H32.9906C33.4404 12.2188 33.8051 12.5835 33.8051 13.0333V17.9208C33.8051 18.3707 33.4404 18.7354 32.9906 18.7354H27.6958C27.2459 18.7354 26.8812 19.1001 26.8812 19.55V32.5833C26.8812 33.0332 26.5165 33.3979 26.0666 33.3979H19.5499C19.1001 33.3979 18.7354 33.0332 18.7354 32.5833V13.0333Z" fill="#280569"/>
<path d="M66.6545 27C65.0598 27 63.782 26.6116 62.8211 25.8347C61.8602 25.0578 61.3798 23.6778 61.3798 21.6947V15.0707H58.7731V11.7893H61.3798L61.8398 7.71067H65.3051V11.7893H69.4145V15.0707H65.3051V21.7253C65.3051 22.4613 65.4585 22.9724 65.7651 23.2587C66.0922 23.5244 66.6442 23.6573 67.4211 23.6573H69.3225V27H66.6545ZM79.1727 27.368C77.6394 27.368 76.2798 27.0409 75.094 26.3867C73.9082 25.7324 72.978 24.8124 72.3034 23.6267C71.6287 22.4409 71.2914 21.0711 71.2914 19.5173C71.2914 17.9431 71.6185 16.5427 72.2727 15.316C72.9474 14.0893 73.8674 13.1387 75.0327 12.464C76.2185 11.7689 77.6087 11.4213 79.2034 11.4213C80.6958 11.4213 82.0145 11.7484 83.1594 12.4027C84.3042 13.0569 85.1936 13.9564 85.8274 15.1013C86.4816 16.2258 86.8087 17.4831 86.8087 18.8733C86.8087 19.0982 86.7985 19.3333 86.778 19.5787C86.778 19.824 86.7678 20.0796 86.7474 20.3453H75.186C75.2678 21.5311 75.6767 22.4613 76.4127 23.136C77.1691 23.8107 78.0789 24.148 79.142 24.148C79.9394 24.148 80.6038 23.9742 81.1354 23.6267C81.6874 23.2587 82.0962 22.7884 82.362 22.216H86.3487C86.0625 23.1769 85.582 24.056 84.9074 24.8533C84.2531 25.6302 83.4354 26.2436 82.454 26.6933C81.4931 27.1431 80.3994 27.368 79.1727 27.368ZM79.2034 14.6107C78.2425 14.6107 77.394 14.8867 76.658 15.4387C75.922 15.9702 75.4518 16.788 75.2474 17.892H82.822C82.7607 16.8902 82.3927 16.0929 81.718 15.5C81.0434 14.9071 80.2051 14.6107 79.2034 14.6107ZM89.4968 27V11.7893H92.9621L93.2688 14.3653C93.739 13.4658 94.4137 12.7502 95.2928 12.2187C96.1924 11.6871 97.2453 11.4213 98.4515 11.4213C100.332 11.4213 101.794 12.0142 102.837 13.2C103.879 14.3858 104.401 16.1236 104.401 18.4133V27H100.475V18.7813C100.475 17.4729 100.21 16.4711 99.6781 15.776C99.1466 15.0809 98.3186 14.7333 97.1941 14.7333C96.0901 14.7333 95.1804 15.1218 94.4648 15.8987C93.7697 16.6756 93.4221 17.7591 93.4221 19.1493V27H89.4968ZM114.533 27.368C113.102 27.368 111.824 27.0204 110.7 26.3253C109.575 25.6302 108.686 24.6796 108.032 23.4733C107.377 22.2671 107.05 20.8973 107.05 19.364C107.05 17.8307 107.377 16.4711 108.032 15.2853C108.686 14.0791 109.575 13.1387 110.7 12.464C111.824 11.7689 113.102 11.4213 114.533 11.4213C115.678 11.4213 116.68 11.636 117.538 12.0653C118.397 12.4947 119.092 13.0978 119.624 13.8747V4.92H123.549V27H120.053L119.624 24.8227C119.133 25.4973 118.479 26.0902 117.661 26.6013C116.864 27.1124 115.821 27.368 114.533 27.368ZM115.361 23.9333C116.629 23.9333 117.661 23.5142 118.458 22.676C119.276 21.8173 119.685 20.7236 119.685 19.3947C119.685 18.0658 119.276 16.9822 118.458 16.144C117.661 15.2853 116.629 14.856 115.361 14.856C114.114 14.856 113.081 15.2751 112.264 16.1133C111.446 16.9516 111.037 18.0351 111.037 19.364C111.037 20.6929 111.446 21.7867 112.264 22.6453C113.081 23.504 114.114 23.9333 115.361 23.9333ZM126.933 27V11.7893H130.429L130.797 14.6413C131.349 13.66 132.095 12.8831 133.036 12.3107C133.996 11.7178 135.121 11.4213 136.409 11.4213V15.5613H135.305C134.446 15.5613 133.68 15.6942 133.005 15.96C132.33 16.2258 131.799 16.6858 131.41 17.34C131.042 17.9942 130.858 18.904 130.858 20.0693V27H126.933ZM144.765 27.368C143.416 27.368 142.23 27.1533 141.208 26.724C140.186 26.2742 139.368 25.6609 138.754 24.884C138.141 24.1071 137.773 23.2076 137.65 22.1853H141.606C141.729 22.7782 142.056 23.2893 142.588 23.7187C143.14 24.1276 143.845 24.332 144.704 24.332C145.562 24.332 146.186 24.1582 146.574 23.8107C146.983 23.4631 147.188 23.0644 147.188 22.6147C147.188 21.9604 146.902 21.5209 146.329 21.296C145.757 21.0507 144.959 20.8156 143.937 20.5907C143.283 20.4476 142.618 20.2738 141.944 20.0693C141.269 19.8649 140.646 19.6093 140.073 19.3027C139.521 18.9756 139.071 18.5667 138.724 18.076C138.376 17.5649 138.202 16.9413 138.202 16.2053C138.202 14.856 138.734 13.7213 139.797 12.8013C140.881 11.8813 142.394 11.4213 144.336 11.4213C146.135 11.4213 147.566 11.8404 148.629 12.6787C149.713 13.5169 150.357 14.672 150.561 16.144H146.85C146.626 15.0196 145.777 14.4573 144.305 14.4573C143.569 14.4573 142.997 14.6004 142.588 14.8867C142.199 15.1729 142.005 15.5307 142.005 15.96C142.005 16.4098 142.302 16.7676 142.894 17.0333C143.487 17.2991 144.274 17.5444 145.256 17.7693C146.319 18.0147 147.29 18.2907 148.169 18.5973C149.069 18.8836 149.784 19.3231 150.316 19.916C150.847 20.4884 151.113 21.3164 151.113 22.4C151.134 23.3404 150.888 24.1889 150.377 24.9453C149.866 25.7018 149.13 26.2947 148.169 26.724C147.208 27.1533 146.074 27.368 144.765 27.368Z" fill="white"/>
<path d="M58.7915 42.9331V34.3464H59.9937L63.0849 40.3326L66.1515 34.3464H67.3659V42.9331H66.3355V36.1864L63.4651 41.7064H62.6923L59.8219 36.1987V42.9331H58.7915ZM72.0601 43.0803C71.5531 43.0803 71.1319 42.9944 70.7967 42.8227C70.4614 42.651 70.2119 42.422 70.0484 42.1358C69.8848 41.8495 69.8031 41.5388 69.8031 41.2035C69.8031 40.582 70.0402 40.1036 70.5145 39.7683C70.9888 39.433 71.6349 39.2654 72.4527 39.2654H74.0964V39.1918C74.0964 38.6602 73.9574 38.2595 73.6793 37.9896C73.4013 37.7116 73.0292 37.5726 72.5631 37.5726C72.1623 37.5726 71.8148 37.6748 71.5204 37.8792C71.2342 38.0755 71.0543 38.3658 70.9807 38.7502H69.9257C69.9666 38.3086 70.1138 37.9365 70.3673 37.6339C70.629 37.3313 70.952 37.1023 71.3364 36.947C71.7207 36.7834 72.1296 36.7016 72.5631 36.7016C73.4135 36.7016 74.0514 36.9306 74.4767 37.3886C74.9101 37.8383 75.1268 38.4394 75.1268 39.1918V42.9331H74.2068L74.1455 41.8414C73.9737 42.1848 73.7202 42.4792 73.3849 42.7246C73.0578 42.9617 72.6162 43.0803 72.0601 43.0803ZM72.2196 42.2094C72.6121 42.2094 72.9474 42.1071 73.2255 41.9027C73.5117 41.6983 73.7284 41.4325 73.8756 41.1054C74.0228 40.7783 74.0964 40.4348 74.0964 40.075V40.0627H72.5385C71.9334 40.0627 71.504 40.169 71.2505 40.3816C71.0052 40.5861 70.8825 40.8437 70.8825 41.1544C70.8825 41.4734 70.997 41.731 71.226 41.9272C71.4631 42.1153 71.7943 42.2094 72.2196 42.2094ZM79.8291 42.9331C79.2731 42.9331 78.8355 42.7982 78.5166 42.5283C78.1977 42.2584 78.0382 41.7719 78.0382 41.0686V37.7198H76.9833V36.8488H78.0382L78.1731 35.3891H79.0686V36.8488H80.8595V37.7198H79.0686V41.0686C79.0686 41.4529 79.1463 41.7146 79.3017 41.8536C79.4571 41.9845 79.731 42.0499 80.1235 42.0499H80.7614V42.9331H79.8291ZM85.7177 43.0803C85.1371 43.0803 84.6137 42.9495 84.1476 42.6878C83.6896 42.4179 83.3257 42.0458 83.0559 41.5715C82.7942 41.089 82.6633 40.5288 82.6633 39.891C82.6633 39.2531 82.7942 38.697 83.0559 38.2227C83.3257 37.7402 83.6896 37.3681 84.1476 37.1064C84.6137 36.8366 85.1371 36.7016 85.7177 36.7016C86.4374 36.7016 87.0425 36.8897 87.5332 37.2659C88.032 37.6421 88.3469 38.145 88.4777 38.7747H87.4228C87.341 38.3985 87.1407 38.1082 86.8217 37.9038C86.5028 37.6911 86.1307 37.5848 85.7055 37.5848C85.362 37.5848 85.039 37.6707 84.7364 37.8424C84.4338 38.0142 84.1885 38.2718 84.0004 38.6152C83.8123 38.9587 83.7183 39.3839 83.7183 39.891C83.7183 40.398 83.8123 40.8232 84.0004 41.1667C84.1885 41.5102 84.4338 41.7719 84.7364 41.9518C85.039 42.1235 85.362 42.2094 85.7055 42.2094C86.1307 42.2094 86.5028 42.1071 86.8217 41.9027C87.1407 41.6901 87.341 41.3916 87.4228 41.0072H88.4777C88.3551 41.6206 88.0443 42.1194 87.5455 42.5038C87.0466 42.8881 86.4374 43.0803 85.7177 43.0803ZM90.8368 42.9331V34.1011H91.8672V37.8915C92.0716 37.5153 92.3619 37.225 92.7381 37.0206C93.1143 36.8079 93.5232 36.7016 93.9648 36.7016C94.668 36.7016 95.2323 36.9224 95.6576 37.364C96.0828 37.7975 96.2954 38.468 96.2954 39.3758V42.9331H95.2773V39.4862C95.2773 38.2186 94.7662 37.5848 93.744 37.5848C93.2124 37.5848 92.7667 37.777 92.4069 38.1614C92.0471 38.5375 91.8672 39.0773 91.8672 39.7806V42.9331H90.8368ZM103.004 42.9331V34.3464H106.022C106.627 34.3464 107.126 34.4446 107.518 34.6408C107.919 34.8289 108.218 35.0906 108.414 35.4259C108.61 35.753 108.708 36.121 108.708 36.5299C108.708 37.086 108.557 37.5235 108.254 37.8424C107.96 38.1614 107.604 38.3822 107.187 38.5048C107.506 38.5621 107.796 38.6888 108.058 38.8851C108.32 39.0814 108.524 39.3267 108.671 39.6211C108.827 39.9155 108.904 40.2385 108.904 40.5902C108.904 41.0236 108.798 41.4202 108.586 41.78C108.373 42.1317 108.058 42.4138 107.641 42.6264C107.224 42.8309 106.717 42.9331 106.12 42.9331H103.004ZM104.035 38.1H105.948C106.496 38.1 106.917 37.9733 107.212 37.7198C107.506 37.4581 107.653 37.0983 107.653 36.6403C107.653 36.2069 107.506 35.8593 107.212 35.5976C106.925 35.3359 106.492 35.2051 105.911 35.2051H104.035V38.1ZM104.035 42.0744H106.01C106.598 42.0744 107.052 41.9395 107.371 41.6696C107.69 41.3916 107.85 41.0072 107.85 40.5166C107.85 40.0341 107.682 39.6497 107.347 39.3635C107.011 39.0691 106.557 38.9219 105.985 38.9219H104.035V42.0744ZM111.868 35.4995C111.663 35.4995 111.491 35.4341 111.352 35.3032C111.222 35.1642 111.156 34.9925 111.156 34.788C111.156 34.5918 111.222 34.4282 111.352 34.2974C111.491 34.1665 111.663 34.1011 111.868 34.1011C112.064 34.1011 112.232 34.1665 112.371 34.2974C112.51 34.4282 112.579 34.5918 112.579 34.788C112.579 34.9925 112.51 35.1642 112.371 35.3032C112.232 35.4341 112.064 35.4995 111.868 35.4995ZM111.352 42.9331V36.8488H112.383V42.9331H111.352ZM117.857 43.0803C117.252 43.0803 116.72 42.9413 116.262 42.6632C115.813 42.3852 115.461 42.0049 115.207 41.5224C114.962 41.0399 114.839 40.492 114.839 39.8787C114.839 39.2654 114.966 38.7215 115.22 38.2472C115.473 37.7647 115.825 37.3886 116.275 37.1187C116.724 36.8407 117.256 36.7016 117.869 36.7016C118.368 36.7016 118.81 36.8039 119.194 37.0083C119.578 37.2127 119.877 37.499 120.089 37.867V34.1011H121.12V42.9331H120.188L120.089 41.9272C119.893 42.2216 119.611 42.4874 119.243 42.7246C118.875 42.9617 118.413 43.0803 117.857 43.0803ZM117.967 42.1848C118.376 42.1848 118.736 42.0908 119.047 41.9027C119.366 41.7064 119.611 41.4366 119.783 41.0931C119.963 40.7496 120.053 40.3489 120.053 39.891C120.053 39.433 119.963 39.0323 119.783 38.6888C119.611 38.3454 119.366 38.0796 119.047 37.8915C118.736 37.6952 118.376 37.5971 117.967 37.5971C117.567 37.5971 117.207 37.6952 116.888 37.8915C116.577 38.0796 116.332 38.3454 116.152 38.6888C115.98 39.0323 115.894 39.433 115.894 39.891C115.894 40.3489 115.98 40.7496 116.152 41.0931C116.332 41.4366 116.577 41.7064 116.888 41.9027C117.207 42.0908 117.567 42.1848 117.967 42.1848ZM130.486 43.0803C129.898 43.0803 129.378 42.974 128.929 42.7614C128.487 42.5406 128.139 42.238 127.886 41.8536C127.641 41.4611 127.518 40.9991 127.518 40.4675C127.518 39.8869 127.686 39.3717 128.021 38.9219C128.364 38.4639 128.859 38.1041 129.505 37.8424C129.227 37.5399 129.027 37.2536 128.904 36.9838C128.781 36.7057 128.72 36.4072 128.72 36.0883C128.72 35.5404 128.912 35.0906 129.297 34.739C129.689 34.3791 130.225 34.1992 130.904 34.1992C131.345 34.1992 131.729 34.2851 132.057 34.4568C132.384 34.6204 132.637 34.8494 132.817 35.1438C132.997 35.4382 133.079 35.7735 133.062 36.1496H132.044C132.052 35.7816 131.938 35.5036 131.701 35.3155C131.472 35.1274 131.206 35.0334 130.904 35.0334C130.536 35.0334 130.249 35.1315 130.045 35.3278C129.84 35.524 129.738 35.7735 129.738 36.076C129.738 36.3377 129.808 36.5912 129.947 36.8366C130.094 37.0819 130.311 37.3559 130.597 37.6584L133.308 40.3939C133.545 40.0504 133.803 39.6375 134.081 39.155L134.461 38.4926H135.553L135.013 39.4494C134.653 40.0954 134.31 40.6351 133.982 41.0686L135.835 42.9331H134.534L133.394 41.78C132.96 42.2462 132.51 42.5815 132.044 42.7859C131.578 42.9822 131.059 43.0803 130.486 43.0803ZM128.548 40.4307C128.548 40.9377 128.728 41.3589 129.088 41.6942C129.448 42.0295 129.918 42.1971 130.499 42.1971C130.932 42.1971 131.325 42.1153 131.676 41.9518C132.036 41.78 132.388 41.502 132.731 41.1176L130.131 38.4803C129.591 38.6929 129.19 38.9628 128.929 39.2899C128.675 39.617 128.548 39.9973 128.548 40.4307ZM145.71 43.0803C144.909 43.0803 144.206 42.8963 143.6 42.5283C142.995 42.1521 142.525 41.6328 142.19 40.9704C141.854 40.2999 141.687 39.5271 141.687 38.652C141.687 37.777 141.854 37.0042 142.19 36.3336C142.533 35.6631 143.016 35.1397 143.637 34.7635C144.267 34.3873 145.007 34.1992 145.857 34.1992C146.822 34.1992 147.624 34.4323 148.262 34.8984C148.908 35.3646 149.325 36.0065 149.513 36.8243H148.323C148.209 36.3091 147.935 35.9002 147.501 35.5976C147.076 35.2951 146.528 35.1438 145.857 35.1438C145.228 35.1438 144.68 35.2869 144.214 35.5731C143.748 35.8511 143.384 36.2519 143.122 36.7752C142.868 37.2986 142.742 37.9242 142.742 38.652C142.742 39.3799 142.868 40.0055 143.122 40.5288C143.375 41.0522 143.727 41.457 144.177 41.7432C144.627 42.0213 145.15 42.1603 145.747 42.1603C146.663 42.1603 147.354 41.8945 147.82 41.363C148.286 40.8232 148.552 40.0872 148.617 39.155H146.14V38.3454H149.672V42.9331H148.728L148.642 41.5224C148.331 42.0213 147.951 42.4056 147.501 42.6755C147.051 42.9454 146.454 43.0803 145.71 43.0803ZM152.161 42.9331V36.8488H153.093L153.179 38.0142C153.367 37.6135 153.653 37.2945 154.037 37.0574C154.422 36.8202 154.896 36.7016 155.46 36.7016V37.7811H155.178C154.818 37.7811 154.487 37.8465 154.185 37.9774C153.882 38.1 153.641 38.3127 153.461 38.6152C153.281 38.9178 153.191 39.3349 153.191 39.8664V42.9331H152.161ZM160.081 43.0803C159.509 43.0803 158.994 42.9495 158.536 42.6878C158.078 42.4261 157.714 42.0581 157.444 41.5838C157.182 41.1013 157.052 40.537 157.052 39.891C157.052 39.2449 157.186 38.6847 157.456 38.2104C157.726 37.7279 158.09 37.3559 158.548 37.0942C159.014 36.8325 159.534 36.7016 160.106 36.7016C160.678 36.7016 161.194 36.8325 161.652 37.0942C162.11 37.3559 162.469 37.7279 162.731 38.2104C163.001 38.6847 163.136 39.2449 163.136 39.891C163.136 40.537 163.001 41.1013 162.731 41.5838C162.461 42.0581 162.093 42.4261 161.627 42.6878C161.169 42.9495 160.654 43.0803 160.081 43.0803ZM160.081 42.1971C160.433 42.1971 160.76 42.1112 161.063 41.9395C161.365 41.7678 161.611 41.5102 161.799 41.1667C161.987 40.8232 162.081 40.398 162.081 39.891C162.081 39.3839 161.987 38.9587 161.799 38.6152C161.619 38.2718 161.378 38.0142 161.075 37.8424C160.772 37.6707 160.449 37.5848 160.106 37.5848C159.754 37.5848 159.427 37.6707 159.125 37.8424C158.822 38.0142 158.577 38.2718 158.389 38.6152C158.201 38.9587 158.106 39.3839 158.106 39.891C158.106 40.398 158.201 40.8232 158.389 41.1667C158.577 41.5102 158.818 41.7678 159.112 41.9395C159.415 42.1112 159.738 42.1971 160.081 42.1971ZM166.488 42.9331L164.709 36.8488H165.739L167.027 41.6206L168.45 36.8488H169.616L171.051 41.6206L172.327 36.8488H173.369L171.591 42.9331H170.536L169.039 37.916L167.543 42.9331H166.488Z" fill="white"/>
</svg>
