<svg width="269" height="81" viewBox="0 0 269 81" fill="none" xmlns="http://www.w3.org/2000/svg">
<rect y="0.94751" width="53.1384" height="53.1384" rx="3.7956" fill="white"/>
<path d="M82.9711 49.0934C79.539 49.0934 76.7889 48.2573 74.7208 46.5853C72.6527 44.9132 71.6187 41.9431 71.6187 37.6749V23.4183H66.0084V16.356H71.6187L72.6087 7.57769H80.067V16.356H88.9114V23.4183H80.067V37.7409C80.067 39.325 80.397 40.425 81.0571 41.0411C81.7611 41.6131 82.9491 41.8991 84.6212 41.8991H88.7134V49.0934H82.9711ZM109.914 49.8854C106.614 49.8854 103.687 49.1814 101.135 47.7733C98.5832 46.3653 96.5811 44.3852 95.129 41.8331C93.677 39.281 92.9509 36.3329 92.9509 32.9887C92.9509 29.6006 93.655 26.5865 95.063 23.9464C96.5151 21.3062 98.4952 19.2602 101.003 17.8081C103.555 16.312 106.547 15.564 109.98 15.564C113.192 15.564 116.03 16.268 118.494 17.6761C120.958 19.0842 122.872 21.0202 124.236 23.4843C125.644 25.9044 126.348 28.6105 126.348 31.6027C126.348 32.0867 126.326 32.5927 126.282 33.1207C126.282 33.6488 126.26 34.1988 126.216 34.7708H101.333C101.509 37.3229 102.389 39.325 103.973 40.777C105.601 42.2291 107.56 42.9551 109.848 42.9551C111.564 42.9551 112.994 42.5811 114.138 41.8331C115.326 41.0411 116.206 40.029 116.778 38.797H125.358C124.742 40.865 123.708 42.7571 122.256 44.4732C120.848 46.1453 119.088 47.4653 116.976 48.4334C114.908 49.4014 112.554 49.8854 109.914 49.8854ZM109.98 22.4283C107.912 22.4283 106.085 23.0223 104.501 24.2104C102.917 25.3544 101.905 27.1145 101.465 29.4906H117.768C117.636 27.3345 116.844 25.6184 115.392 24.3424C113.94 23.0663 112.136 22.4283 109.98 22.4283ZM132.134 49.0934V16.356H139.592L140.252 21.9003C141.264 19.9642 142.716 18.4241 144.608 17.2801C146.544 16.136 148.811 15.564 151.407 15.564C155.455 15.564 158.601 16.8401 160.845 19.3922C163.089 21.9443 164.211 25.6844 164.211 30.6126V49.0934H155.763V31.4047C155.763 28.5885 155.191 26.4325 154.047 24.9364C152.903 23.4403 151.121 22.6923 148.701 22.6923C146.324 22.6923 144.366 23.5283 142.826 25.2004C141.33 26.8725 140.582 29.2046 140.582 32.1967V49.0934H132.134ZM186.018 49.8854C182.938 49.8854 180.188 49.1374 177.768 47.6413C175.348 46.1453 173.434 44.0992 172.026 41.5031C170.618 38.907 169.914 35.9588 169.914 32.6587C169.914 29.3586 170.618 26.4325 172.026 23.8804C173.434 21.2842 175.348 19.2602 177.768 17.8081C180.188 16.312 182.938 15.564 186.018 15.564C188.482 15.564 190.639 16.026 192.487 16.9501C194.335 17.8741 195.831 19.1722 196.975 20.8442V1.57144H205.423V49.0934H197.899L196.975 44.4072C195.919 45.8593 194.511 47.1353 192.751 48.2353C191.035 49.3354 188.79 49.8854 186.018 49.8854ZM187.8 42.4931C190.529 42.4931 192.751 41.5911 194.467 39.787C196.227 37.9389 197.107 35.5848 197.107 32.7247C197.107 29.8646 196.227 27.5325 194.467 25.7284C192.751 23.8804 190.529 22.9563 187.8 22.9563C185.116 22.9563 182.894 23.8584 181.134 25.6624C179.374 27.4665 178.494 29.7986 178.494 32.6587C178.494 35.5188 179.374 37.8729 181.134 39.721C182.894 41.5691 185.116 42.4931 187.8 42.4931ZM212.706 49.0934V16.356H220.23L221.022 22.4943C222.211 20.3822 223.817 18.7101 225.841 17.4781C227.909 16.202 230.329 15.564 233.101 15.564V24.4744H230.725C228.877 24.4744 227.227 24.7604 225.775 25.3324C224.323 25.9044 223.179 26.8945 222.343 28.3025C221.55 29.7106 221.154 31.6687 221.154 34.1768V49.0934H212.706ZM251.086 49.8854C248.182 49.8854 245.629 49.4234 243.429 48.4994C241.229 47.5313 239.469 46.2113 238.149 44.5392C236.829 42.8671 236.037 40.9311 235.773 38.731H244.287C244.551 40.007 245.255 41.1071 246.399 42.0311C247.588 42.9111 249.106 43.3511 250.954 43.3511C252.802 43.3511 254.144 42.9771 254.98 42.2291C255.86 41.4811 256.3 40.623 256.3 39.655C256.3 38.2469 255.684 37.3009 254.452 36.8169C253.22 36.2889 251.504 35.7828 249.304 35.2988C247.896 34.9908 246.465 34.6168 245.013 34.1768C243.561 33.7368 242.219 33.1867 240.987 32.5267C239.799 31.8227 238.831 30.9426 238.083 29.8866C237.335 28.7866 236.961 27.4445 236.961 25.8604C236.961 22.9563 238.105 20.5142 240.393 18.5341C242.725 16.5541 245.981 15.564 250.162 15.564C254.034 15.564 257.114 16.4661 259.402 18.2701C261.734 20.0742 263.12 22.5603 263.56 25.7284H255.574C255.09 23.3083 253.264 22.0983 250.096 22.0983C248.512 22.0983 247.28 22.4063 246.399 23.0223C245.563 23.6383 245.145 24.4084 245.145 25.3324C245.145 26.3005 245.783 27.0705 247.06 27.6425C248.336 28.2145 250.03 28.7426 252.142 29.2266C254.43 29.7546 256.52 30.3486 258.412 31.0086C260.348 31.6247 261.888 32.5707 263.032 33.8468C264.176 35.0788 264.748 36.8609 264.748 39.193C264.792 41.2171 264.264 43.0431 263.164 44.6712C262.064 46.2993 260.48 47.5753 258.412 48.4994C256.344 49.4234 253.902 49.8854 251.086 49.8854Z" fill="white"/>
<path d="M1.11 75.4993V64.9993H4.8C5.54 64.9993 6.15 65.1193 6.63 65.3593C7.12 65.5893 7.485 65.9093 7.725 66.3193C7.965 66.7193 8.085 67.1693 8.085 67.6693C8.085 68.3493 7.9 68.8843 7.53 69.2743C7.17 69.6643 6.735 69.9343 6.225 70.0843C6.615 70.1543 6.97 70.3093 7.29 70.5493C7.61 70.7893 7.86 71.0893 8.04 71.4493C8.23 71.8093 8.325 72.2043 8.325 72.6343C8.325 73.1643 8.195 73.6493 7.935 74.0893C7.675 74.5193 7.29 74.8643 6.78 75.1243C6.27 75.3743 5.65 75.4993 4.92 75.4993H1.11ZM2.37 69.5893H4.71C5.38 69.5893 5.895 69.4343 6.255 69.1243C6.615 68.8043 6.795 68.3643 6.795 67.8043C6.795 67.2743 6.615 66.8493 6.255 66.5293C5.905 66.2093 5.375 66.0493 4.665 66.0493H2.37V69.5893ZM2.37 74.4493H4.785C5.505 74.4493 6.06 74.2843 6.45 73.9543C6.84 73.6143 7.035 73.1443 7.035 72.5443C7.035 71.9543 6.83 71.4843 6.42 71.1343C6.01 70.7743 5.455 70.5943 4.755 70.5943H2.37V74.4493ZM14.4984 75.6793C13.6184 75.6793 12.9184 75.4143 12.3984 74.8843C11.8784 74.3443 11.6184 73.5193 11.6184 72.4093V68.0593H12.8784V72.2743C12.8784 73.8243 13.5134 74.5993 14.7834 74.5993C15.4334 74.5993 15.9684 74.3693 16.3884 73.9093C16.8184 73.4393 17.0334 72.7743 17.0334 71.9143V68.0593H18.2934V75.4993H17.1534L17.0634 74.1643C16.8334 74.6343 16.4884 75.0043 16.0284 75.2743C15.5784 75.5443 15.0684 75.6793 14.4984 75.6793ZM24.9424 75.6793C24.0524 75.6793 23.3124 75.4543 22.7224 75.0043C22.1324 74.5543 21.7874 73.9443 21.6874 73.1743H22.9774C23.0574 73.5643 23.2624 73.9043 23.5924 74.1943C23.9324 74.4743 24.3874 74.6143 24.9574 74.6143C25.4874 74.6143 25.8774 74.5043 26.1274 74.2843C26.3774 74.0543 26.5024 73.7843 26.5024 73.4743C26.5024 73.0243 26.3374 72.7243 26.0074 72.5743C25.6874 72.4243 25.2324 72.2893 24.6424 72.1693C24.2424 72.0893 23.8424 71.9743 23.4424 71.8243C23.0424 71.6743 22.7074 71.4643 22.4374 71.1943C22.1674 70.9143 22.0324 70.5493 22.0324 70.0993C22.0324 69.4493 22.2724 68.9193 22.7524 68.5093C23.2424 68.0893 23.9024 67.8793 24.7324 67.8793C25.5224 67.8793 26.1674 68.0793 26.6674 68.4793C27.1774 68.8693 27.4724 69.4293 27.5524 70.1593H26.3074C26.2574 69.7793 26.0924 69.4843 25.8124 69.2743C25.5424 69.0543 25.1774 68.9443 24.7174 68.9443C24.2674 68.9443 23.9174 69.0393 23.6674 69.2293C23.4274 69.4193 23.3074 69.6693 23.3074 69.9793C23.3074 70.2793 23.4624 70.5143 23.7724 70.6843C24.0924 70.8543 24.5224 70.9993 25.0624 71.1193C25.5224 71.2193 25.9574 71.3443 26.3674 71.4943C26.7874 71.6343 27.1274 71.8493 27.3874 72.1393C27.6574 72.4193 27.7924 72.8293 27.7924 73.3693C27.8024 74.0393 27.5474 74.5943 27.0274 75.0343C26.5174 75.4643 25.8224 75.6793 24.9424 75.6793ZM32.0824 66.4093C31.8324 66.4093 31.6224 66.3293 31.4524 66.1693C31.2924 65.9993 31.2124 65.7893 31.2124 65.5393C31.2124 65.2993 31.2924 65.0993 31.4524 64.9393C31.6224 64.7793 31.8324 64.6993 32.0824 64.6993C32.3224 64.6993 32.5274 64.7793 32.6974 64.9393C32.8674 65.0993 32.9524 65.2993 32.9524 65.5393C32.9524 65.7893 32.8674 65.9993 32.6974 66.1693C32.5274 66.3293 32.3224 66.4093 32.0824 66.4093ZM31.4524 75.4993V68.0593H32.7124V75.4993H31.4524ZM36.6313 75.4993V68.0593H37.7713L37.8463 69.3943C38.0863 68.9243 38.4313 68.5543 38.8813 68.2843C39.3313 68.0143 39.8413 67.8793 40.4113 67.8793C41.2913 67.8793 41.9913 68.1493 42.5113 68.6893C43.0413 69.2193 43.3063 70.0393 43.3063 71.1493V75.4993H42.0463V71.2843C42.0463 69.7343 41.4063 68.9593 40.1263 68.9593C39.4863 68.9593 38.9513 69.1943 38.5213 69.6643C38.1013 70.1243 37.8913 70.7843 37.8913 71.6443V75.4993H36.6313ZM50.2853 75.6793C49.5753 75.6793 48.9453 75.5193 48.3953 75.1993C47.8453 74.8693 47.4103 74.4143 47.0903 73.8343C46.7803 73.2543 46.6253 72.5693 46.6253 71.7793C46.6253 70.9993 46.7803 70.3193 47.0903 69.7393C47.4003 69.1493 47.8303 68.6943 48.3803 68.3743C48.9403 68.0443 49.5853 67.8793 50.3153 67.8793C51.0353 67.8793 51.6553 68.0443 52.1753 68.3743C52.7053 68.6943 53.1103 69.1193 53.3903 69.6493C53.6703 70.1793 53.8103 70.7493 53.8103 71.3593C53.8103 71.4693 53.8053 71.5793 53.7953 71.6893C53.7953 71.7993 53.7953 71.9243 53.7953 72.0643H47.8703C47.9003 72.6343 48.0303 73.1093 48.2603 73.4893C48.5003 73.8593 48.7953 74.1393 49.1453 74.3293C49.5053 74.5193 49.8853 74.6143 50.2853 74.6143C50.8053 74.6143 51.2403 74.4943 51.5903 74.2543C51.9403 74.0143 52.1953 73.6893 52.3553 73.2793H53.6003C53.4003 73.9693 53.0153 74.5443 52.4453 75.0043C51.8853 75.4543 51.1653 75.6793 50.2853 75.6793ZM50.2853 68.9443C49.6853 68.9443 49.1503 69.1293 48.6803 69.4993C48.2203 69.8593 47.9553 70.3893 47.8853 71.0893H52.5653C52.5353 70.4193 52.3053 69.8943 51.8753 69.5143C51.4453 69.1343 50.9153 68.9443 50.2853 68.9443ZM60.0553 75.6793C59.1653 75.6793 58.4253 75.4543 57.8353 75.0043C57.2453 74.5543 56.9003 73.9443 56.8003 73.1743H58.0903C58.1703 73.5643 58.3753 73.9043 58.7053 74.1943C59.0453 74.4743 59.5003 74.6143 60.0703 74.6143C60.6003 74.6143 60.9903 74.5043 61.2403 74.2843C61.4903 74.0543 61.6153 73.7843 61.6153 73.4743C61.6153 73.0243 61.4503 72.7243 61.1203 72.5743C60.8003 72.4243 60.3453 72.2893 59.7553 72.1693C59.3553 72.0893 58.9553 71.9743 58.5553 71.8243C58.1553 71.6743 57.8203 71.4643 57.5503 71.1943C57.2803 70.9143 57.1453 70.5493 57.1453 70.0993C57.1453 69.4493 57.3853 68.9193 57.8653 68.5093C58.3553 68.0893 59.0153 67.8793 59.8453 67.8793C60.6353 67.8793 61.2803 68.0793 61.7803 68.4793C62.2903 68.8693 62.5853 69.4293 62.6653 70.1593H61.4203C61.3703 69.7793 61.2053 69.4843 60.9253 69.2743C60.6553 69.0543 60.2903 68.9443 59.8303 68.9443C59.3803 68.9443 59.0303 69.0393 58.7803 69.2293C58.5403 69.4193 58.4203 69.6693 58.4203 69.9793C58.4203 70.2793 58.5753 70.5143 58.8853 70.6843C59.2053 70.8543 59.6353 70.9993 60.1753 71.1193C60.6353 71.2193 61.0703 71.3443 61.4803 71.4943C61.9003 71.6343 62.2403 71.8493 62.5003 72.1393C62.7703 72.4193 62.9053 72.8293 62.9053 73.3693C62.9153 74.0393 62.6603 74.5943 62.1403 75.0343C61.6303 75.4643 60.9353 75.6793 60.0553 75.6793ZM69.2803 75.6793C68.3903 75.6793 67.6503 75.4543 67.0603 75.0043C66.4703 74.5543 66.1253 73.9443 66.0253 73.1743H67.3153C67.3953 73.5643 67.6003 73.9043 67.9303 74.1943C68.2703 74.4743 68.7253 74.6143 69.2953 74.6143C69.8253 74.6143 70.2153 74.5043 70.4653 74.2843C70.7153 74.0543 70.8403 73.7843 70.8403 73.4743C70.8403 73.0243 70.6753 72.7243 70.3453 72.5743C70.0253 72.4243 69.5703 72.2893 68.9803 72.1693C68.5803 72.0893 68.1803 71.9743 67.7803 71.8243C67.3803 71.6743 67.0453 71.4643 66.7753 71.1943C66.5053 70.9143 66.3703 70.5493 66.3703 70.0993C66.3703 69.4493 66.6103 68.9193 67.0903 68.5093C67.5803 68.0893 68.2403 67.8793 69.0703 67.8793C69.8603 67.8793 70.5053 68.0793 71.0053 68.4793C71.5153 68.8693 71.8103 69.4293 71.8903 70.1593H70.6453C70.5953 69.7793 70.4303 69.4843 70.1503 69.2743C69.8803 69.0543 69.5153 68.9443 69.0553 68.9443C68.6053 68.9443 68.2553 69.0393 68.0053 69.2293C67.7653 69.4193 67.6453 69.6693 67.6453 69.9793C67.6453 70.2793 67.8003 70.5143 68.1103 70.6843C68.4303 70.8543 68.8603 70.9993 69.4003 71.1193C69.8603 71.2193 70.2953 71.3443 70.7053 71.4943C71.1253 71.6343 71.4653 71.8493 71.7253 72.1393C71.9953 72.4193 72.1303 72.8293 72.1303 73.3693C72.1403 74.0393 71.8853 74.5943 71.3653 75.0343C70.8553 75.4643 70.1603 75.6793 69.2803 75.6793ZM81.35 75.4993V68.0593H82.49L82.58 69.1393C82.82 68.7393 83.14 68.4293 83.54 68.2093C83.94 67.9893 84.39 67.8793 84.89 67.8793C85.48 67.8793 85.985 67.9993 86.405 68.2393C86.835 68.4793 87.165 68.8443 87.395 69.3343C87.655 68.8843 88.01 68.5293 88.46 68.2693C88.92 68.0093 89.415 67.8793 89.945 67.8793C90.835 67.8793 91.545 68.1493 92.075 68.6893C92.605 69.2193 92.87 70.0393 92.87 71.1493V75.4993H91.625V71.2843C91.625 70.5143 91.47 69.9343 91.16 69.5443C90.85 69.1543 90.405 68.9593 89.825 68.9593C89.225 68.9593 88.725 69.1943 88.325 69.6643C87.935 70.1243 87.74 70.7843 87.74 71.6443V75.4993H86.48V71.2843C86.48 70.5143 86.325 69.9343 86.015 69.5443C85.705 69.1543 85.26 68.9593 84.68 68.9593C84.09 68.9593 83.595 69.1943 83.195 69.6643C82.805 70.1243 82.61 70.7843 82.61 71.6443V75.4993H81.35ZM98.968 75.6793C98.348 75.6793 97.833 75.5743 97.423 75.3643C97.013 75.1543 96.708 74.8743 96.508 74.5243C96.308 74.1743 96.208 73.7943 96.208 73.3843C96.208 72.6243 96.498 72.0393 97.078 71.6293C97.658 71.2193 98.448 71.0143 99.448 71.0143H101.458V70.9243C101.458 70.2743 101.288 69.7843 100.948 69.4543C100.608 69.1143 100.153 68.9443 99.583 68.9443C99.093 68.9443 98.668 69.0693 98.308 69.3193C97.958 69.5593 97.738 69.9143 97.648 70.3843H96.358C96.408 69.8443 96.588 69.3893 96.898 69.0193C97.218 68.6493 97.613 68.3693 98.083 68.1793C98.553 67.9793 99.053 67.8793 99.583 67.8793C100.623 67.8793 101.403 68.1593 101.923 68.7193C102.453 69.2693 102.718 70.0043 102.718 70.9243V75.4993H101.593L101.518 74.1643C101.308 74.5843 100.998 74.9443 100.588 75.2443C100.188 75.5343 99.648 75.6793 98.968 75.6793ZM99.163 74.6143C99.643 74.6143 100.053 74.4893 100.393 74.2393C100.743 73.9893 101.008 73.6643 101.188 73.2643C101.368 72.8643 101.458 72.4443 101.458 72.0043V71.9893H99.553C98.813 71.9893 98.288 72.1193 97.978 72.3793C97.678 72.6293 97.528 72.9443 97.528 73.3243C97.528 73.7143 97.668 74.0293 97.948 74.2693C98.238 74.4993 98.643 74.6143 99.163 74.6143ZM109.068 75.4993C108.388 75.4993 107.853 75.3343 107.463 75.0043C107.073 74.6743 106.878 74.0793 106.878 73.2193V69.1243H105.588V68.0593H106.878L107.043 66.2743H108.138V68.0593H110.328V69.1243H108.138V73.2193C108.138 73.6893 108.233 74.0093 108.423 74.1793C108.613 74.3393 108.948 74.4193 109.428 74.4193H110.208V75.4993H109.068ZM116.869 75.6793C116.159 75.6793 115.519 75.5193 114.949 75.1993C114.389 74.8693 113.944 74.4143 113.614 73.8343C113.294 73.2443 113.134 72.5593 113.134 71.7793C113.134 70.9993 113.294 70.3193 113.614 69.7393C113.944 69.1493 114.389 68.6943 114.949 68.3743C115.519 68.0443 116.159 67.8793 116.869 67.8793C117.749 67.8793 118.489 68.1093 119.089 68.5693C119.699 69.0293 120.084 69.6443 120.244 70.4143H118.954C118.854 69.9543 118.609 69.5993 118.219 69.3493C117.829 69.0893 117.374 68.9593 116.854 68.9593C116.434 68.9593 116.039 69.0643 115.669 69.2743C115.299 69.4843 114.999 69.7993 114.769 70.2193C114.539 70.6393 114.424 71.1593 114.424 71.7793C114.424 72.3993 114.539 72.9193 114.769 73.3393C114.999 73.7593 115.299 74.0793 115.669 74.2993C116.039 74.5093 116.434 74.6143 116.854 74.6143C117.374 74.6143 117.829 74.4893 118.219 74.2393C118.609 73.9793 118.854 73.6143 118.954 73.1443H120.244C120.094 73.8943 119.714 74.5043 119.104 74.9743C118.494 75.4443 117.749 75.6793 116.869 75.6793ZM123.729 75.4993V64.6993H124.989V69.3343C125.239 68.8743 125.594 68.5193 126.054 68.2693C126.514 68.0093 127.014 67.8793 127.554 67.8793C128.414 67.8793 129.104 68.1493 129.624 68.6893C130.144 69.2193 130.404 70.0393 130.404 71.1493V75.4993H129.159V71.2843C129.159 69.7343 128.534 68.9593 127.284 68.9593C126.634 68.9593 126.089 69.1943 125.649 69.6643C125.209 70.1243 124.989 70.7843 124.989 71.6443V75.4993H123.729ZM134.803 66.4093C134.553 66.4093 134.343 66.3293 134.173 66.1693C134.013 65.9993 133.933 65.7893 133.933 65.5393C133.933 65.2993 134.013 65.0993 134.173 64.9393C134.343 64.7793 134.553 64.6993 134.803 64.6993C135.043 64.6993 135.248 64.7793 135.418 64.9393C135.588 65.0993 135.673 65.2993 135.673 65.5393C135.673 65.7893 135.588 65.9993 135.418 66.1693C135.248 66.3293 135.043 66.4093 134.803 66.4093ZM134.173 75.4993V68.0593H135.433V75.4993H134.173ZM139.351 75.4993V68.0593H140.491L140.566 69.3943C140.806 68.9243 141.151 68.5543 141.601 68.2843C142.051 68.0143 142.561 67.8793 143.131 67.8793C144.011 67.8793 144.711 68.1493 145.231 68.6893C145.761 69.2193 146.026 70.0393 146.026 71.1493V75.4993H144.766V71.2843C144.766 69.7343 144.126 68.9593 142.846 68.9593C142.206 68.9593 141.671 69.1943 141.241 69.6643C140.821 70.1243 140.611 70.7843 140.611 71.6443V75.4993H139.351ZM152.6 73.1593C152.18 73.1593 151.795 73.1043 151.445 72.9943L150.695 73.6993C150.805 73.7793 150.94 73.8493 151.1 73.9093C151.27 73.9593 151.51 74.0093 151.82 74.0593C152.13 74.0993 152.565 74.1443 153.125 74.1943C154.125 74.2643 154.84 74.4943 155.27 74.8843C155.7 75.2743 155.915 75.7843 155.915 76.4143C155.915 76.8443 155.795 77.2543 155.555 77.6443C155.325 78.0343 154.965 78.3543 154.475 78.6043C153.995 78.8543 153.375 78.9793 152.615 78.9793C151.945 78.9793 151.35 78.8893 150.83 78.7093C150.31 78.5393 149.905 78.2743 149.615 77.9143C149.325 77.5643 149.18 77.1193 149.18 76.5793C149.18 76.2993 149.255 75.9943 149.405 75.6643C149.555 75.3443 149.835 75.0393 150.245 74.7493C150.025 74.6593 149.835 74.5643 149.675 74.4643C149.525 74.3543 149.385 74.2343 149.255 74.1043V73.7593L150.53 72.4993C149.94 71.9993 149.645 71.3393 149.645 70.5193C149.645 70.0293 149.76 69.5843 149.99 69.1843C150.22 68.7843 150.555 68.4693 150.995 68.2393C151.435 67.9993 151.97 67.8793 152.6 67.8793C153.03 67.8793 153.42 67.9393 153.77 68.0593H156.515V69.0043L155.12 69.0643C155.41 69.4843 155.555 69.9693 155.555 70.5193C155.555 71.0093 155.435 71.4543 155.195 71.8543C154.965 72.2543 154.63 72.5743 154.19 72.8143C153.76 73.0443 153.23 73.1593 152.6 73.1593ZM152.6 72.1243C153.13 72.1243 153.55 71.9893 153.86 71.7193C154.18 71.4393 154.34 71.0393 154.34 70.5193C154.34 70.0093 154.18 69.6193 153.86 69.3493C153.55 69.0693 153.13 68.9293 152.6 68.9293C152.06 68.9293 151.63 69.0693 151.31 69.3493C151 69.6193 150.845 70.0093 150.845 70.5193C150.845 71.0393 151 71.4393 151.31 71.7193C151.63 71.9893 152.06 72.1243 152.6 72.1243ZM150.41 76.4593C150.41 76.9593 150.62 77.3293 151.04 77.5693C151.46 77.8193 151.985 77.9443 152.615 77.9443C153.235 77.9443 153.73 77.8093 154.1 77.5393C154.48 77.2693 154.67 76.9093 154.67 76.4593C154.67 76.1393 154.54 75.8593 154.28 75.6193C154.02 75.3893 153.54 75.2543 152.84 75.2143C152.29 75.1743 151.815 75.1243 151.415 75.0643C151.005 75.2843 150.735 75.5193 150.605 75.7693C150.475 76.0293 150.41 76.2593 150.41 76.4593ZM158.657 77.2843L159.527 73.9693H160.832L159.527 77.2843H158.657ZM172.222 75.6793C171.602 75.6793 171.087 75.5743 170.677 75.3643C170.267 75.1543 169.962 74.8743 169.762 74.5243C169.562 74.1743 169.462 73.7943 169.462 73.3843C169.462 72.6243 169.752 72.0393 170.332 71.6293C170.912 71.2193 171.702 71.0143 172.702 71.0143H174.712V70.9243C174.712 70.2743 174.542 69.7843 174.202 69.4543C173.862 69.1143 173.407 68.9443 172.837 68.9443C172.347 68.9443 171.922 69.0693 171.562 69.3193C171.212 69.5593 170.992 69.9143 170.902 70.3843H169.612C169.662 69.8443 169.842 69.3893 170.152 69.0193C170.472 68.6493 170.867 68.3693 171.337 68.1793C171.807 67.9793 172.307 67.8793 172.837 67.8793C173.877 67.8793 174.657 68.1593 175.177 68.7193C175.707 69.2693 175.972 70.0043 175.972 70.9243V75.4993H174.847L174.772 74.1643C174.562 74.5843 174.252 74.9443 173.842 75.2443C173.442 75.5343 172.902 75.6793 172.222 75.6793ZM172.417 74.6143C172.897 74.6143 173.307 74.4893 173.647 74.2393C173.997 73.9893 174.262 73.6643 174.442 73.2643C174.622 72.8643 174.712 72.4443 174.712 72.0043V71.9893H172.807C172.067 71.9893 171.542 72.1193 171.232 72.3793C170.932 72.6293 170.782 72.9443 170.782 73.3243C170.782 73.7143 170.922 74.0293 171.202 74.2693C171.492 74.4993 171.897 74.6143 172.417 74.6143ZM182.303 75.6793C181.423 75.6793 180.723 75.4143 180.203 74.8843C179.683 74.3443 179.423 73.5193 179.423 72.4093V68.0593H180.683V72.2743C180.683 73.8243 181.318 74.5993 182.588 74.5993C183.238 74.5993 183.773 74.3693 184.193 73.9093C184.623 73.4393 184.838 72.7743 184.838 71.9143V68.0593H186.098V75.4993H184.958L184.868 74.1643C184.638 74.6343 184.293 75.0043 183.833 75.2743C183.383 75.5443 182.873 75.6793 182.303 75.6793ZM192.837 75.4993C192.157 75.4993 191.622 75.3343 191.232 75.0043C190.842 74.6743 190.647 74.0793 190.647 73.2193V69.1243H189.357V68.0593H190.647L190.812 66.2743H191.907V68.0593H194.097V69.1243H191.907V73.2193C191.907 73.6893 192.002 74.0093 192.192 74.1793C192.382 74.3393 192.717 74.4193 193.197 74.4193H193.977V75.4993H192.837ZM200.607 75.6793C199.907 75.6793 199.277 75.5193 198.717 75.1993C198.157 74.8793 197.712 74.4293 197.382 73.8493C197.062 73.2593 196.902 72.5693 196.902 71.7793C196.902 70.9893 197.067 70.3043 197.397 69.7243C197.727 69.1343 198.172 68.6793 198.732 68.3593C199.302 68.0393 199.937 67.8793 200.637 67.8793C201.337 67.8793 201.967 68.0393 202.527 68.3593C203.087 68.6793 203.527 69.1343 203.847 69.7243C204.177 70.3043 204.342 70.9893 204.342 71.7793C204.342 72.5693 204.177 73.2593 203.847 73.8493C203.517 74.4293 203.067 74.8793 202.497 75.1993C201.937 75.5193 201.307 75.6793 200.607 75.6793ZM200.607 74.5993C201.037 74.5993 201.437 74.4943 201.807 74.2843C202.177 74.0743 202.477 73.7593 202.707 73.3393C202.937 72.9193 203.052 72.3993 203.052 71.7793C203.052 71.1593 202.937 70.6393 202.707 70.2193C202.487 69.7993 202.192 69.4843 201.822 69.2743C201.452 69.0643 201.057 68.9593 200.637 68.9593C200.207 68.9593 199.807 69.0643 199.437 69.2743C199.067 69.4843 198.767 69.7993 198.537 70.2193C198.307 70.6393 198.192 71.1593 198.192 71.7793C198.192 72.3993 198.307 72.9193 198.537 73.3393C198.767 73.7593 199.062 74.0743 199.422 74.2843C199.792 74.4943 200.187 74.5993 200.607 74.5993ZM207.819 75.4993V68.0593H208.959L209.049 69.1393C209.289 68.7393 209.609 68.4293 210.009 68.2093C210.409 67.9893 210.859 67.8793 211.359 67.8793C211.949 67.8793 212.454 67.9993 212.874 68.2393C213.304 68.4793 213.634 68.8443 213.864 69.3343C214.124 68.8843 214.479 68.5293 214.929 68.2693C215.389 68.0093 215.884 67.8793 216.414 67.8793C217.304 67.8793 218.014 68.1493 218.544 68.6893C219.074 69.2193 219.339 70.0393 219.339 71.1493V75.4993H218.094V71.2843C218.094 70.5143 217.939 69.9343 217.629 69.5443C217.319 69.1543 216.874 68.9593 216.294 68.9593C215.694 68.9593 215.194 69.1943 214.794 69.6643C214.404 70.1243 214.209 70.7843 214.209 71.6443V75.4993H212.949V71.2843C212.949 70.5143 212.794 69.9343 212.484 69.5443C212.174 69.1543 211.729 68.9593 211.149 68.9593C210.559 68.9593 210.064 69.1943 209.664 69.6643C209.274 70.1243 209.079 70.7843 209.079 71.6443V75.4993H207.819ZM225.437 75.6793C224.817 75.6793 224.302 75.5743 223.892 75.3643C223.482 75.1543 223.177 74.8743 222.977 74.5243C222.777 74.1743 222.677 73.7943 222.677 73.3843C222.677 72.6243 222.967 72.0393 223.547 71.6293C224.127 71.2193 224.917 71.0143 225.917 71.0143H227.927V70.9243C227.927 70.2743 227.757 69.7843 227.417 69.4543C227.077 69.1143 226.622 68.9443 226.052 68.9443C225.562 68.9443 225.137 69.0693 224.777 69.3193C224.427 69.5593 224.207 69.9143 224.117 70.3843H222.827C222.877 69.8443 223.057 69.3893 223.367 69.0193C223.687 68.6493 224.082 68.3693 224.552 68.1793C225.022 67.9793 225.522 67.8793 226.052 67.8793C227.092 67.8793 227.872 68.1593 228.392 68.7193C228.922 69.2693 229.187 70.0043 229.187 70.9243V75.4993H228.062L227.987 74.1643C227.777 74.5843 227.467 74.9443 227.057 75.2443C226.657 75.5343 226.117 75.6793 225.437 75.6793ZM225.632 74.6143C226.112 74.6143 226.522 74.4893 226.862 74.2393C227.212 73.9893 227.477 73.6643 227.657 73.2643C227.837 72.8643 227.927 72.4443 227.927 72.0043V71.9893H226.022C225.282 71.9893 224.757 72.1193 224.447 72.3793C224.147 72.6293 223.997 72.9443 223.997 73.3243C223.997 73.7143 224.137 74.0293 224.417 74.2693C224.707 74.4993 225.112 74.6143 225.632 74.6143ZM235.538 75.4993C234.858 75.4993 234.323 75.3343 233.933 75.0043C233.543 74.6743 233.348 74.0793 233.348 73.2193V69.1243H232.057V68.0593H233.348L233.513 66.2743H234.608V68.0593H236.798V69.1243H234.608V73.2193C234.608 73.6893 234.703 74.0093 234.893 74.1793C235.083 74.3393 235.418 74.4193 235.898 74.4193H236.678V75.4993H235.538ZM243.263 75.6793C242.553 75.6793 241.923 75.5193 241.373 75.1993C240.823 74.8693 240.388 74.4143 240.068 73.8343C239.758 73.2543 239.603 72.5693 239.603 71.7793C239.603 70.9993 239.758 70.3193 240.068 69.7393C240.378 69.1493 240.808 68.6943 241.358 68.3743C241.918 68.0443 242.563 67.8793 243.293 67.8793C244.013 67.8793 244.633 68.0443 245.153 68.3743C245.683 68.6943 246.088 69.1193 246.368 69.6493C246.648 70.1793 246.788 70.7493 246.788 71.3593C246.788 71.4693 246.783 71.5793 246.773 71.6893C246.773 71.7993 246.773 71.9243 246.773 72.0643H240.848C240.878 72.6343 241.008 73.1093 241.238 73.4893C241.478 73.8593 241.773 74.1393 242.123 74.3293C242.483 74.5193 242.863 74.6143 243.263 74.6143C243.783 74.6143 244.218 74.4943 244.568 74.2543C244.918 74.0143 245.173 73.6893 245.333 73.2793H246.578C246.378 73.9693 245.993 74.5443 245.423 75.0043C244.863 75.4543 244.143 75.6793 243.263 75.6793ZM243.263 68.9443C242.663 68.9443 242.128 69.1293 241.658 69.4993C241.198 69.8593 240.933 70.3893 240.863 71.0893H245.543C245.513 70.4193 245.283 69.8943 244.853 69.5143C244.423 69.1343 243.893 68.9443 243.263 68.9443ZM253.558 75.6793C252.818 75.6793 252.168 75.5093 251.608 75.1693C251.058 74.8293 250.628 74.3643 250.318 73.7743C250.018 73.1843 249.868 72.5143 249.868 71.7643C249.868 71.0143 250.023 70.3493 250.333 69.7693C250.643 69.1793 251.073 68.7193 251.623 68.3893C252.173 68.0493 252.823 67.8793 253.573 67.8793C254.183 67.8793 254.723 68.0043 255.193 68.2543C255.663 68.5043 256.028 68.8543 256.288 69.3043V64.6993H257.548V75.4993H256.408L256.288 74.2693C256.048 74.6293 255.703 74.9543 255.253 75.2443C254.803 75.5343 254.238 75.6793 253.558 75.6793ZM253.693 74.5843C254.193 74.5843 254.633 74.4693 255.013 74.2393C255.403 73.9993 255.703 73.6693 255.913 73.2493C256.133 72.8293 256.243 72.3393 256.243 71.7793C256.243 71.2193 256.133 70.7293 255.913 70.3093C255.703 69.8893 255.403 69.5643 255.013 69.3343C254.633 69.0943 254.193 68.9743 253.693 68.9743C253.203 68.9743 252.763 69.0943 252.373 69.3343C251.993 69.5643 251.693 69.8893 251.473 70.3093C251.263 70.7293 251.158 71.2193 251.158 71.7793C251.158 72.3393 251.263 72.8293 251.473 73.2493C251.693 73.6693 251.993 73.9993 252.373 74.2393C252.763 74.4693 253.203 74.5843 253.693 74.5843Z" fill="white"/>
<path d="M13.2845 14.7066C13.2845 14.1825 13.7094 13.7577 14.2334 13.7577H19.9268C20.4509 13.7577 20.8758 14.1825 20.8758 14.7066V21.3489H14.2334C13.7094 21.3489 13.2845 20.9241 13.2845 20.4V14.7066Z" fill="#280569"/>
<path d="M21.8247 14.7066C21.8247 14.1825 22.2495 13.7577 22.7736 13.7577H31.3137H38.4305C38.9545 13.7577 39.3794 14.1825 39.3794 14.7066V20.4C39.3794 20.9241 38.9545 21.3489 38.4305 21.3489H32.2626C31.7385 21.3489 31.3137 21.7737 31.3137 22.2978V37.4802C31.3137 38.0043 30.8889 38.4291 30.3648 38.4291H22.7736C22.2495 38.4291 21.8247 38.0043 21.8247 37.4802V14.7066Z" fill="#280569"/>
</svg>
