<svg width="164" height="48" viewBox="0 0 164 48" fill="none" xmlns="http://www.w3.org/2000/svg">
<path d="M51.1262 29.2969C49.0481 29.2969 47.3829 28.7907 46.1307 27.7783C44.8785 26.7658 44.2524 24.9675 44.2524 22.3832V13.751H40.8555V9.47487H44.2524L44.8519 4.1597H49.3678V9.47487H54.7229V13.751H49.3678V22.4231C49.3678 23.3822 49.5676 24.0483 49.9672 24.4213C50.3935 24.7677 51.1128 24.9408 52.1253 24.9408H54.603V29.2969H51.1262ZM67.4395 29.7764C65.4413 29.7764 63.6696 29.3502 62.1243 28.4976C60.579 27.645 59.3668 26.4461 58.4876 24.9009C57.6084 23.3556 57.1688 21.5706 57.1688 19.5457C57.1688 17.4943 57.5951 15.6692 58.4476 14.0707C59.3268 12.4722 60.5258 11.2333 62.0444 10.3541C63.5896 9.44823 65.4013 8.99531 67.4794 8.99531C69.4243 8.99531 71.1428 9.42159 72.6348 10.2741C74.1267 11.1267 75.2857 12.299 76.1116 13.791C76.9642 15.2563 77.3904 16.8948 77.3904 18.7065C77.3904 18.9996 77.3771 19.3059 77.3505 19.6257C77.3505 19.9454 77.3372 20.2784 77.3105 20.6247H62.2442C62.3508 22.17 62.8836 23.3822 63.8427 24.2614C64.8285 25.1406 66.0141 25.5802 67.3995 25.5802C68.4386 25.5802 69.3045 25.3538 69.9972 24.9009C70.7165 24.4213 71.2494 23.8085 71.5957 23.0625H76.791C76.418 24.3147 75.7919 25.4604 74.9127 26.4994C74.0601 27.5118 72.9944 28.3111 71.7156 28.8972C70.4634 29.4834 69.038 29.7764 67.4395 29.7764ZM67.4794 13.1515C66.2273 13.1515 65.1216 13.5112 64.1625 14.2306C63.2033 14.9233 62.5906 15.989 62.3241 17.4277H72.1952C72.1152 16.1222 71.6357 15.0831 70.7565 14.3105C69.8773 13.5379 68.7849 13.1515 67.4794 13.1515ZM80.8935 29.2969V9.47487H85.4094L85.8091 12.8318C86.4218 11.6596 87.301 10.7271 88.4467 10.0344C89.6189 9.34166 90.991 8.99531 92.5629 8.99531C95.014 8.99531 96.919 9.76794 98.2777 11.3132C99.6365 12.8585 100.316 15.1231 100.316 18.107V29.2969H95.2005V18.5866C95.2005 16.8815 94.8542 15.576 94.1615 14.6702C93.4688 13.7643 92.3897 13.3114 90.9244 13.3114C89.4857 13.3114 88.3001 13.8176 87.3676 14.83C86.4618 15.8424 86.0089 17.2545 86.0089 19.0662V29.2969H80.8935ZM113.52 29.7764C111.655 29.7764 109.99 29.3235 108.524 28.4177C107.059 27.5118 105.9 26.273 105.048 24.701C104.195 23.1291 103.769 21.3441 103.769 19.3459C103.769 17.3477 104.195 15.576 105.048 14.0307C105.9 12.4588 107.059 11.2333 108.524 10.3541C109.99 9.44823 111.655 8.99531 113.52 8.99531C115.012 8.99531 116.317 9.27506 117.436 9.83455C118.555 10.394 119.461 11.18 120.154 12.1924V0.523002H125.269V29.2969H120.713L120.154 26.4595C119.514 27.3387 118.662 28.1113 117.596 28.7773C116.557 29.4434 115.198 29.7764 113.52 29.7764ZM114.599 25.3005C116.251 25.3005 117.596 24.7543 118.635 23.662C119.701 22.543 120.234 21.1176 120.234 19.3859C120.234 17.6541 119.701 16.2421 118.635 15.1497C117.596 14.0307 116.251 13.4712 114.599 13.4712C112.974 13.4712 111.628 14.0174 110.563 15.1098C109.497 16.2021 108.964 17.6141 108.964 19.3459C108.964 21.0777 109.497 22.503 110.563 23.622C111.628 24.741 112.974 25.3005 114.599 25.3005ZM129.679 29.2969V9.47487H134.235L134.714 13.1915C135.434 11.9127 136.406 10.9002 137.632 10.1543C138.884 9.38162 140.349 8.99531 142.028 8.99531V14.3904H140.589C139.47 14.3904 138.471 14.5636 137.592 14.9099C136.713 15.2563 136.02 15.8557 135.514 16.7083C135.034 17.5609 134.794 18.7465 134.794 20.2651V29.2969H129.679ZM152.917 29.7764C151.159 29.7764 149.614 29.4967 148.281 28.9372C146.949 28.3511 145.884 27.5518 145.084 26.5394C144.285 25.527 143.805 24.3547 143.646 23.0226H148.801C148.961 23.7952 149.387 24.4613 150.08 25.0208C150.799 25.5536 151.718 25.82 152.837 25.82C153.956 25.82 154.769 25.5936 155.275 25.1406C155.808 24.6877 156.074 24.1682 156.074 23.5821C156.074 22.7295 155.701 22.1567 154.955 21.8636C154.209 21.5439 153.17 21.2375 151.838 20.9445C150.986 20.758 150.12 20.5315 149.241 20.2651C148.361 19.9987 147.549 19.6656 146.803 19.266C146.083 18.8397 145.497 18.3069 145.044 17.6674C144.591 17.0014 144.365 16.1888 144.365 15.2296C144.365 13.4712 145.058 11.9926 146.443 10.7937C147.855 9.59476 149.827 8.99531 152.358 8.99531C154.702 8.99531 156.567 9.54148 157.953 10.6338C159.365 11.7262 160.204 13.2315 160.47 15.1497H155.635C155.342 13.6844 154.236 12.9517 152.318 12.9517C151.359 12.9517 150.613 13.1382 150.08 13.5112C149.574 13.8842 149.32 14.3504 149.32 14.9099C149.32 15.4961 149.707 15.9623 150.479 16.3087C151.252 16.655 152.278 16.9747 153.557 17.2678C154.942 17.5875 156.208 17.9472 157.353 18.3468C158.525 18.7198 159.458 19.2926 160.151 20.0653C160.843 20.8112 161.19 21.8903 161.19 23.3023C161.216 24.5279 160.897 25.6335 160.231 26.6193C159.564 27.6051 158.605 28.3777 157.353 28.9372C156.101 29.4967 154.622 29.7764 152.917 29.7764Z" fill="#212529"/>
<path d="M1.60666 45.0137V38.6561H3.8409C4.28896 38.6561 4.65831 38.7287 4.94894 38.874C5.24563 39.0133 5.46663 39.2071 5.61195 39.4553C5.75727 39.6975 5.82993 39.97 5.82993 40.2727C5.82993 40.6844 5.71791 41.0084 5.49388 41.2445C5.27591 41.4807 5.01252 41.6441 4.70372 41.735C4.93986 41.7773 5.15481 41.8712 5.34856 42.0165C5.54232 42.1618 5.69369 42.3435 5.80268 42.5615C5.91772 42.7794 5.97524 43.0186 5.97524 43.279C5.97524 43.5999 5.89653 43.8935 5.7391 44.1599C5.58168 44.4203 5.34856 44.6292 5.03977 44.7866C4.73097 44.938 4.35557 45.0137 3.91356 45.0137H1.60666ZM2.36957 41.4352H3.78641C4.19209 41.4352 4.50391 41.3414 4.72189 41.1537C4.93986 40.9599 5.04885 40.6935 5.04885 40.3545C5.04885 40.0335 4.93986 39.7762 4.72189 39.5825C4.50997 39.3887 4.18906 39.2918 3.75916 39.2918H2.36957V41.4352ZM2.36957 44.3779H3.83182C4.26777 44.3779 4.60382 44.278 4.83996 44.0782C5.07609 43.8723 5.19416 43.5878 5.19416 43.2245C5.19416 42.8672 5.07004 42.5826 4.82179 42.3707C4.57354 42.1528 4.2375 42.0438 3.81366 42.0438H2.36957V44.3779ZM9.71317 45.1227C9.18034 45.1227 8.7565 44.9622 8.44165 44.6413C8.1268 44.3143 7.96937 43.8148 7.96937 43.1427V40.5089H8.73228V43.061C8.73228 43.9995 9.11677 44.4687 9.88574 44.4687C10.2793 44.4687 10.6032 44.3295 10.8575 44.0509C11.1179 43.7664 11.2481 43.3637 11.2481 42.843V40.5089H12.011V45.0137H11.3207L11.2662 44.2053C11.127 44.4899 10.9181 44.714 10.6396 44.8774C10.3671 45.0409 10.0583 45.1227 9.71317 45.1227ZM16.0369 45.1227C15.498 45.1227 15.0499 44.9864 14.6927 44.714C14.3354 44.4415 14.1266 44.0721 14.066 43.6059H14.8471C14.8955 43.8421 15.0196 44.0479 15.2195 44.2235C15.4253 44.393 15.7008 44.4778 16.0459 44.4778C16.3668 44.4778 16.603 44.4112 16.7544 44.278C16.9057 44.1387 16.9814 43.9753 16.9814 43.7876C16.9814 43.5151 16.8815 43.3334 16.6817 43.2426C16.4879 43.1518 16.2124 43.0701 15.8552 42.9974C15.613 42.949 15.3708 42.8793 15.1286 42.7885C14.8864 42.6977 14.6836 42.5705 14.5201 42.4071C14.3566 42.2375 14.2749 42.0165 14.2749 41.744C14.2749 41.3505 14.4202 41.0296 14.7108 40.7813C15.0075 40.527 15.4072 40.3999 15.9097 40.3999C16.388 40.3999 16.7786 40.521 17.0813 40.7632C17.3901 40.9993 17.5687 41.3384 17.6172 41.7804H16.8633C16.8331 41.5503 16.7332 41.3717 16.5636 41.2445C16.4002 41.1113 16.1791 41.0447 15.9006 41.0447C15.6282 41.0447 15.4162 41.1022 15.2649 41.2173C15.1195 41.3323 15.0469 41.4837 15.0469 41.6714C15.0469 41.853 15.1407 41.9953 15.3284 42.0983C15.5222 42.2012 15.7826 42.289 16.1095 42.3616C16.388 42.4222 16.6514 42.4979 16.8997 42.5887C17.154 42.6735 17.3598 42.8036 17.5173 42.9792C17.6808 43.1488 17.7625 43.397 17.7625 43.724C17.7685 44.1297 17.6142 44.4657 17.2993 44.7321C16.9905 44.9925 16.5697 45.1227 16.0369 45.1227ZM20.36 39.5098C20.2087 39.5098 20.0815 39.4614 19.9786 39.3645C19.8817 39.2616 19.8333 39.1344 19.8333 38.983C19.8333 38.8377 19.8817 38.7166 19.9786 38.6197C20.0815 38.5229 20.2087 38.4744 20.36 38.4744C20.5053 38.4744 20.6295 38.5229 20.7324 38.6197C20.8353 38.7166 20.8868 38.8377 20.8868 38.983C20.8868 39.1344 20.8353 39.2616 20.7324 39.3645C20.6295 39.4614 20.5053 39.5098 20.36 39.5098ZM19.9786 45.0137V40.5089H20.7415V45.0137H19.9786ZM23.1143 45.0137V40.5089H23.8046L23.85 41.3172C23.9953 41.0326 24.2042 40.8086 24.4766 40.6451C24.7491 40.4816 25.0579 40.3999 25.403 40.3999C25.9359 40.3999 26.3597 40.5633 26.6746 40.8903C26.9955 41.2112 27.1559 41.7077 27.1559 42.3798V45.0137H26.393V42.4615C26.393 41.523 26.0055 41.0538 25.2305 41.0538C24.843 41.0538 24.519 41.1961 24.2587 41.4807C24.0044 41.7592 23.8772 42.1588 23.8772 42.6795V45.0137H23.1143ZM31.3816 45.1227C30.9517 45.1227 30.5702 45.0258 30.2372 44.832C29.9042 44.6322 29.6408 44.3567 29.4471 44.0055C29.2594 43.6544 29.1655 43.2396 29.1655 42.7613C29.1655 42.289 29.2594 41.8773 29.4471 41.5261C29.6348 41.1688 29.8951 40.8933 30.2282 40.6996C30.5672 40.4998 30.9578 40.3999 31.3998 40.3999C31.8357 40.3999 32.2111 40.4998 32.526 40.6996C32.8469 40.8933 33.0921 41.1507 33.2616 41.4716C33.4312 41.7925 33.5159 42.1376 33.5159 42.507C33.5159 42.5736 33.5129 42.6402 33.5069 42.7068C33.5069 42.7734 33.5069 42.8491 33.5069 42.9338H29.9194C29.9375 43.279 30.0162 43.5666 30.1555 43.7966C30.3008 44.0207 30.4794 44.1902 30.6913 44.3053C30.9093 44.4203 31.1394 44.4778 31.3816 44.4778C31.6965 44.4778 31.9598 44.4052 32.1718 44.2598C32.3837 44.1145 32.5381 43.9177 32.635 43.6695H33.3888C33.2677 44.0873 33.0346 44.4354 32.6895 44.714C32.3504 44.9864 31.9144 45.1227 31.3816 45.1227ZM31.3816 41.0447C31.0183 41.0447 30.6944 41.1567 30.4098 41.3808C30.1313 41.5987 29.9708 41.9196 29.9284 42.3435H32.7621C32.7439 41.9378 32.6047 41.6199 32.3443 41.3898C32.084 41.1598 31.7631 41.0447 31.3816 41.0447ZM37.2972 45.1227C36.7583 45.1227 36.3103 44.9864 35.953 44.714C35.5958 44.4415 35.3869 44.0721 35.3264 43.6059H36.1074C36.1559 43.8421 36.28 44.0479 36.4798 44.2235C36.6857 44.393 36.9612 44.4778 37.3063 44.4778C37.6272 44.4778 37.8634 44.4112 38.0147 44.278C38.1661 44.1387 38.2418 43.9753 38.2418 43.7876C38.2418 43.5151 38.1419 43.3334 37.9421 43.2426C37.7483 43.1518 37.4728 43.0701 37.1156 42.9974C36.8734 42.949 36.6312 42.8793 36.389 42.7885C36.1468 42.6977 35.944 42.5705 35.7805 42.4071C35.617 42.2375 35.5353 42.0165 35.5353 41.744C35.5353 41.3505 35.6806 41.0296 35.9712 40.7813C36.2679 40.527 36.6675 40.3999 37.1701 40.3999C37.6484 40.3999 38.0389 40.521 38.3417 40.7632C38.6505 40.9993 38.8291 41.3384 38.8775 41.7804H38.1237C38.0934 41.5503 37.9935 41.3717 37.824 41.2445C37.6605 41.1113 37.4395 41.0447 37.161 41.0447C36.8885 41.0447 36.6766 41.1022 36.5252 41.2173C36.3799 41.3323 36.3073 41.4837 36.3073 41.6714C36.3073 41.853 36.4011 41.9953 36.5888 42.0983C36.7826 42.2012 37.0429 42.289 37.3699 42.3616C37.6484 42.4222 37.9118 42.4979 38.16 42.5887C38.4143 42.6735 38.6202 42.8036 38.7776 42.9792C38.9411 43.1488 39.0229 43.397 39.0229 43.724C39.0289 44.1297 38.8745 44.4657 38.5597 44.7321C38.2509 44.9925 37.83 45.1227 37.2972 45.1227ZM42.8828 45.1227C42.3439 45.1227 41.8959 44.9864 41.5387 44.714C41.1814 44.4415 40.9725 44.0721 40.912 43.6059H41.6931C41.7415 43.8421 41.8656 44.0479 42.0654 44.2235C42.2713 44.393 42.5468 44.4778 42.8919 44.4778C43.2128 44.4778 43.449 44.4112 43.6003 44.278C43.7517 44.1387 43.8274 43.9753 43.8274 43.7876C43.8274 43.5151 43.7275 43.3334 43.5277 43.2426C43.3339 43.1518 43.0584 43.0701 42.7012 42.9974C42.459 42.949 42.2168 42.8793 41.9746 42.7885C41.7324 42.6977 41.5296 42.5705 41.3661 42.4071C41.2026 42.2375 41.1209 42.0165 41.1209 41.744C41.1209 41.3505 41.2662 41.0296 41.5568 40.7813C41.8535 40.527 42.2531 40.3999 42.7557 40.3999C43.234 40.3999 43.6246 40.521 43.9273 40.7632C44.2361 40.9993 44.4147 41.3384 44.4631 41.7804H43.7093C43.679 41.5503 43.5791 41.3717 43.4096 41.2445C43.2461 41.1113 43.0251 41.0447 42.7466 41.0447C42.4741 41.0447 42.2622 41.1022 42.1108 41.2173C41.9655 41.3323 41.8929 41.4837 41.8929 41.6714C41.8929 41.853 41.9867 41.9953 42.1744 42.0983C42.3682 42.2012 42.6285 42.289 42.9555 42.3616C43.234 42.4222 43.4974 42.4979 43.7456 42.5887C44 42.6735 44.2058 42.8036 44.3632 42.9792C44.5267 43.1488 44.6085 43.397 44.6085 43.724C44.6145 44.1297 44.4601 44.4657 44.1453 44.7321C43.8365 44.9925 43.4157 45.1227 42.8828 45.1227ZM50.1909 45.0137V40.5089H50.8811L50.9356 41.1628C51.0809 40.9206 51.2747 40.7329 51.5169 40.5997C51.7591 40.4665 52.0316 40.3999 52.3343 40.3999C52.6915 40.3999 52.9973 40.4725 53.2516 40.6178C53.512 40.7632 53.7118 40.9842 53.851 41.2809C54.0085 41.0084 54.2234 40.7934 54.4959 40.636C54.7744 40.4786 55.0741 40.3999 55.395 40.3999C55.9339 40.3999 56.3638 40.5633 56.6847 40.8903C57.0056 41.2112 57.1661 41.7077 57.1661 42.3798V45.0137H56.4123V42.4615C56.4123 41.9953 56.3184 41.6441 56.1307 41.408C55.943 41.1719 55.6736 41.0538 55.3224 41.0538C54.9591 41.0538 54.6563 41.1961 54.4141 41.4807C54.178 41.7592 54.0599 42.1588 54.0599 42.6795V45.0137H53.297V42.4615C53.297 41.9953 53.2032 41.6441 53.0155 41.408C52.8278 41.1719 52.5583 41.0538 52.2072 41.0538C51.8499 41.0538 51.5502 41.1961 51.308 41.4807C51.0719 41.7592 50.9538 42.1588 50.9538 42.6795V45.0137H50.1909ZM60.8583 45.1227C60.4829 45.1227 60.1711 45.0591 59.9228 44.9319C59.6746 44.8048 59.4899 44.6352 59.3688 44.4233C59.2477 44.2114 59.1872 43.9813 59.1872 43.7331C59.1872 43.2729 59.3628 42.9187 59.714 42.6704C60.0651 42.4222 60.5435 42.2981 61.149 42.2981H62.366V42.2436C62.366 41.85 62.263 41.5533 62.0572 41.3535C61.8513 41.1476 61.5758 41.0447 61.2307 41.0447C60.934 41.0447 60.6767 41.1204 60.4587 41.2718C60.2468 41.4171 60.1136 41.632 60.0591 41.9166H59.278C59.3083 41.5896 59.4173 41.3142 59.605 41.0901C59.7987 40.8661 60.0379 40.6966 60.3225 40.5815C60.607 40.4604 60.9098 40.3999 61.2307 40.3999C61.8604 40.3999 62.3327 40.5694 62.6475 40.9085C62.9684 41.2415 63.1289 41.6865 63.1289 42.2436V45.0137H62.4477L62.4023 44.2053C62.2752 44.4597 62.0875 44.6776 61.8392 44.8593C61.597 45.0349 61.27 45.1227 60.8583 45.1227ZM60.9764 44.4778C61.267 44.4778 61.5153 44.4021 61.7211 44.2508C61.9331 44.0994 62.0935 43.9026 62.2025 43.6604C62.3115 43.4182 62.366 43.1639 62.366 42.8975V42.8884H61.2125C60.7645 42.8884 60.4466 42.9671 60.2589 43.1246C60.0772 43.2759 59.9864 43.4667 59.9864 43.6967C59.9864 43.9329 60.0712 44.1236 60.2407 44.2689C60.4163 44.4082 60.6615 44.4778 60.9764 44.4778ZM66.9738 45.0137C66.5621 45.0137 66.2382 44.9138 66.002 44.714C65.7659 44.5141 65.6478 44.1539 65.6478 43.6332V41.1537H64.8667V40.5089H65.6478L65.7477 39.4281H66.4107V40.5089H67.7367V41.1537H66.4107V43.6332C66.4107 43.9177 66.4682 44.1115 66.5833 44.2144C66.6983 44.3113 66.9012 44.3597 67.1918 44.3597H67.6641V45.0137H66.9738ZM71.697 45.1227C71.2671 45.1227 70.8796 45.0258 70.5345 44.832C70.1954 44.6322 69.926 44.3567 69.7262 44.0055C69.5324 43.6483 69.4355 43.2335 69.4355 42.7613C69.4355 42.289 69.5324 41.8773 69.7262 41.5261C69.926 41.1688 70.1954 40.8933 70.5345 40.6996C70.8796 40.4998 71.2671 40.3999 71.697 40.3999C72.2299 40.3999 72.6779 40.5391 73.0412 40.8177C73.4106 41.0962 73.6437 41.4686 73.7406 41.9348H72.9595C72.8989 41.6563 72.7506 41.4413 72.5144 41.2899C72.2783 41.1325 72.0028 41.0538 71.688 41.0538C71.4336 41.0538 71.1945 41.1174 70.9705 41.2445C70.7464 41.3717 70.5648 41.5624 70.4255 41.8167C70.2863 42.071 70.2166 42.3859 70.2166 42.7613C70.2166 43.1367 70.2863 43.4515 70.4255 43.7058C70.5648 43.9601 70.7464 44.1539 70.9705 44.2871C71.1945 44.4142 71.4336 44.4778 71.688 44.4778C72.0028 44.4778 72.2783 44.4021 72.5144 44.2508C72.7506 44.0933 72.8989 43.8723 72.9595 43.5878H73.7406C73.6497 44.0419 73.4196 44.4112 73.0503 44.6958C72.681 44.9804 72.2299 45.1227 71.697 45.1227ZM75.8505 45.0137V38.4744H76.6134V41.2809C76.7648 41.0023 76.9797 40.7874 77.2582 40.636C77.5368 40.4786 77.8395 40.3999 78.1665 40.3999C78.6872 40.3999 79.105 40.5633 79.4198 40.8903C79.7347 41.2112 79.8921 41.7077 79.8921 42.3798V45.0137H79.1383V42.4615C79.1383 41.523 78.7598 41.0538 78.003 41.0538C77.6094 41.0538 77.2794 41.1961 77.013 41.4807C76.7466 41.7592 76.6134 42.1588 76.6134 42.6795V45.0137H75.8505ZM82.5556 39.5098C82.4043 39.5098 82.2771 39.4614 82.1742 39.3645C82.0773 39.2616 82.0289 39.1344 82.0289 38.983C82.0289 38.8377 82.0773 38.7166 82.1742 38.6197C82.2771 38.5229 82.4043 38.4744 82.5556 38.4744C82.7009 38.4744 82.8251 38.5229 82.928 38.6197C83.0309 38.7166 83.0824 38.8377 83.0824 38.983C83.0824 39.1344 83.0309 39.2616 82.928 39.3645C82.8251 39.4614 82.7009 39.5098 82.5556 39.5098ZM82.1742 45.0137V40.5089H82.9371V45.0137H82.1742ZM85.3099 45.0137V40.5089H86.0002L86.0456 41.3172C86.1909 41.0326 86.3998 40.8086 86.6722 40.6451C86.9447 40.4816 87.2535 40.3999 87.5986 40.3999C88.1315 40.3999 88.5553 40.5633 88.8702 40.8903C89.1911 41.2112 89.3515 41.7077 89.3515 42.3798V45.0137H88.5886V42.4615C88.5886 41.523 88.2011 41.0538 87.4261 41.0538C87.0386 41.0538 86.7146 41.1961 86.4543 41.4807C86.2 41.7592 86.0728 42.1588 86.0728 42.6795V45.0137H85.3099ZM93.332 43.5968C93.0777 43.5968 92.8446 43.5635 92.6326 43.4969L92.1785 43.9238C92.2451 43.9722 92.3269 44.0146 92.4237 44.0509C92.5267 44.0812 92.672 44.1115 92.8597 44.1418C93.0474 44.166 93.3108 44.1932 93.6499 44.2235C94.2553 44.2659 94.6883 44.4052 94.9486 44.6413C95.209 44.8774 95.3392 45.1862 95.3392 45.5677C95.3392 45.8281 95.2665 46.0763 95.1212 46.3124C94.9819 46.5486 94.764 46.7423 94.4673 46.8937C94.1766 47.0451 93.8012 47.1208 93.3411 47.1208C92.9354 47.1208 92.5751 47.0663 92.2603 46.9573C91.9454 46.8543 91.7002 46.6939 91.5246 46.4759C91.349 46.264 91.2612 45.9946 91.2612 45.6676C91.2612 45.4981 91.3066 45.3134 91.3975 45.1136C91.4883 44.9198 91.6578 44.7351 91.9061 44.5596C91.7729 44.5051 91.6578 44.4475 91.5609 44.387C91.4701 44.3204 91.3853 44.2477 91.3066 44.169V43.9601L92.0786 43.1972C91.7214 42.8945 91.5428 42.4948 91.5428 41.9984C91.5428 41.7017 91.6124 41.4322 91.7517 41.19C91.8909 40.9478 92.0938 40.7571 92.3602 40.6178C92.6266 40.4725 92.9505 40.3999 93.332 40.3999C93.5923 40.3999 93.8285 40.4362 94.0404 40.5089H95.7025V41.081L94.8578 41.1174C95.0334 41.3717 95.1212 41.6653 95.1212 41.9984C95.1212 42.295 95.0485 42.5645 94.9032 42.8067C94.764 43.0489 94.5611 43.2426 94.2947 43.3879C94.0343 43.5272 93.7134 43.5968 93.332 43.5968ZM93.332 42.9702C93.6529 42.9702 93.9072 42.8884 94.0949 42.7249C94.2886 42.5554 94.3855 42.3132 94.3855 41.9984C94.3855 41.6896 94.2886 41.4534 94.0949 41.2899C93.9072 41.1204 93.6529 41.0356 93.332 41.0356C93.005 41.0356 92.7447 41.1204 92.5509 41.2899C92.3632 41.4534 92.2693 41.6896 92.2693 41.9984C92.2693 42.3132 92.3632 42.5554 92.5509 42.7249C92.7447 42.8884 93.005 42.9702 93.332 42.9702ZM92.006 45.5949C92.006 45.8977 92.1331 46.1217 92.3874 46.267C92.6417 46.4184 92.9596 46.4941 93.3411 46.4941C93.7165 46.4941 94.0162 46.4123 94.2402 46.2489C94.4703 46.0854 94.5853 45.8674 94.5853 45.5949C94.5853 45.4012 94.5066 45.2316 94.3492 45.0863C94.1918 44.9471 93.9011 44.8653 93.4773 44.8411C93.1443 44.8169 92.8567 44.7866 92.6145 44.7503C92.3662 44.8835 92.2027 45.0258 92.124 45.1772C92.0453 45.3346 92.006 45.4738 92.006 45.5949ZM96.999 46.0945L97.5258 44.0873H98.316L97.5258 46.0945H96.999ZM105.213 45.1227C104.837 45.1227 104.526 45.0591 104.277 44.9319C104.029 44.8048 103.844 44.6352 103.723 44.4233C103.602 44.2114 103.542 43.9813 103.542 43.7331C103.542 43.2729 103.717 42.9187 104.069 42.6704C104.42 42.4222 104.898 42.2981 105.504 42.2981H106.721V42.2436C106.721 41.85 106.618 41.5533 106.412 41.3535C106.206 41.1476 105.93 41.0447 105.585 41.0447C105.289 41.0447 105.031 41.1204 104.813 41.2718C104.601 41.4171 104.468 41.632 104.414 41.9166H103.633C103.663 41.5896 103.772 41.3142 103.96 41.0901C104.153 40.8661 104.392 40.6966 104.677 40.5815C104.962 40.4604 105.264 40.3999 105.585 40.3999C106.215 40.3999 106.687 40.5694 107.002 40.9085C107.323 41.2415 107.483 41.6865 107.483 42.2436V45.0137H106.802L106.757 44.2053C106.63 44.4597 106.442 44.6776 106.194 44.8593C105.952 45.0349 105.625 45.1227 105.213 45.1227ZM105.331 44.4778C105.622 44.4778 105.87 44.4021 106.076 44.2508C106.288 44.0994 106.448 43.9026 106.557 43.6604C106.666 43.4182 106.721 43.1639 106.721 42.8975V42.8884H105.567C105.119 42.8884 104.801 42.9671 104.613 43.1246C104.432 43.2759 104.341 43.4667 104.341 43.6967C104.341 43.9329 104.426 44.1236 104.595 44.2689C104.771 44.4082 105.016 44.4778 105.331 44.4778ZM111.316 45.1227C110.783 45.1227 110.36 44.9622 110.045 44.6413C109.73 44.3143 109.573 43.8148 109.573 43.1427V40.5089H110.335V43.061C110.335 43.9995 110.72 44.4687 111.489 44.4687C111.882 44.4687 112.206 44.3295 112.461 44.0509C112.721 43.7664 112.851 43.3637 112.851 42.843V40.5089H113.614V45.0137H112.924L112.869 44.2053C112.73 44.4899 112.521 44.714 112.243 44.8774C111.97 45.0409 111.661 45.1227 111.316 45.1227ZM117.695 45.0137C117.283 45.0137 116.959 44.9138 116.723 44.714C116.487 44.5141 116.368 44.1539 116.368 43.6332V41.1537H115.587V40.5089H116.368L116.468 39.4281H117.131V40.5089H118.457V41.1537H117.131V43.6332C117.131 43.9177 117.189 44.1115 117.304 44.2144C117.419 44.3113 117.622 44.3597 117.912 44.3597H118.385V45.0137H117.695ZM122.4 45.1227C121.976 45.1227 121.594 45.0258 121.255 44.832C120.916 44.6383 120.647 44.3658 120.447 44.0146C120.253 43.6574 120.156 43.2396 120.156 42.7613C120.156 42.2829 120.256 41.8682 120.456 41.517C120.656 41.1598 120.925 40.8843 121.264 40.6905C121.609 40.4967 121.994 40.3999 122.418 40.3999C122.842 40.3999 123.223 40.4967 123.562 40.6905C123.901 40.8843 124.168 41.1598 124.361 41.517C124.561 41.8682 124.661 42.2829 124.661 42.7613C124.661 43.2396 124.561 43.6574 124.361 44.0146C124.162 44.3658 123.889 44.6383 123.544 44.832C123.205 45.0258 122.823 45.1227 122.4 45.1227ZM122.4 44.4687C122.66 44.4687 122.902 44.4052 123.126 44.278C123.35 44.1509 123.532 43.9601 123.671 43.7058C123.81 43.4515 123.88 43.1367 123.88 42.7613C123.88 42.3859 123.81 42.071 123.671 41.8167C123.538 41.5624 123.359 41.3717 123.135 41.2445C122.911 41.1174 122.672 41.0538 122.418 41.0538C122.157 41.0538 121.915 41.1174 121.691 41.2445C121.467 41.3717 121.285 41.5624 121.146 41.8167C121.007 42.071 120.937 42.3859 120.937 42.7613C120.937 43.1367 121.007 43.4515 121.146 43.7058C121.285 43.9601 121.464 44.1509 121.682 44.278C121.906 44.4052 122.145 44.4687 122.4 44.4687ZM126.766 45.0137V40.5089H127.457L127.511 41.1628C127.656 40.9206 127.85 40.7329 128.092 40.5997C128.335 40.4665 128.607 40.3999 128.91 40.3999C129.267 40.3999 129.573 40.4725 129.827 40.6178C130.087 40.7632 130.287 40.9842 130.426 41.2809C130.584 41.0084 130.799 40.7934 131.071 40.636C131.35 40.4786 131.65 40.3999 131.97 40.3999C132.509 40.3999 132.939 40.5633 133.26 40.8903C133.581 41.2112 133.741 41.7077 133.741 42.3798V45.0137H132.988V42.4615C132.988 41.9953 132.894 41.6441 132.706 41.408C132.518 41.1719 132.249 41.0538 131.898 41.0538C131.534 41.0538 131.232 41.1961 130.99 41.4807C130.753 41.7592 130.635 42.1588 130.635 42.6795V45.0137H129.872V42.4615C129.872 41.9953 129.779 41.6441 129.591 41.408C129.403 41.1719 129.134 41.0538 128.783 41.0538C128.425 41.0538 128.126 41.1961 127.883 41.4807C127.647 41.7592 127.529 42.1588 127.529 42.6795V45.0137H126.766ZM137.434 45.1227C137.058 45.1227 136.747 45.0591 136.498 44.9319C136.25 44.8048 136.065 44.6352 135.944 44.4233C135.823 44.2114 135.763 43.9813 135.763 43.7331C135.763 43.2729 135.938 42.9187 136.289 42.6704C136.641 42.4222 137.119 42.2981 137.724 42.2981H138.941V42.2436C138.941 41.85 138.838 41.5533 138.633 41.3535C138.427 41.1476 138.151 41.0447 137.806 41.0447C137.509 41.0447 137.252 41.1204 137.034 41.2718C136.822 41.4171 136.689 41.632 136.634 41.9166H135.853C135.884 41.5896 135.993 41.3142 136.18 41.0901C136.374 40.8661 136.613 40.6966 136.898 40.5815C137.182 40.4604 137.485 40.3999 137.806 40.3999C138.436 40.3999 138.908 40.5694 139.223 40.9085C139.544 41.2415 139.704 41.6865 139.704 42.2436V45.0137H139.023L138.978 44.2053C138.851 44.4597 138.663 44.6776 138.415 44.8593C138.172 45.0349 137.845 45.1227 137.434 45.1227ZM137.552 44.4778C137.842 44.4778 138.091 44.4021 138.297 44.2508C138.508 44.0994 138.669 43.9026 138.778 43.6604C138.887 43.4182 138.941 43.1639 138.941 42.8975V42.8884H137.788C137.34 42.8884 137.022 42.9671 136.834 43.1246C136.653 43.2759 136.562 43.4667 136.562 43.6967C136.562 43.9329 136.647 44.1236 136.816 44.2689C136.992 44.4082 137.237 44.4778 137.552 44.4778ZM143.549 45.0137C143.138 45.0137 142.814 44.9138 142.577 44.714C142.341 44.5141 142.223 44.1539 142.223 43.6332V41.1537H141.442V40.5089H142.223L142.323 39.4281H142.986V40.5089H144.312V41.1537H142.986V43.6332C142.986 43.9177 143.044 44.1115 143.159 44.2144C143.274 44.3113 143.477 44.3597 143.767 44.3597H144.239V45.0137H143.549ZM148.227 45.1227C147.797 45.1227 147.416 45.0258 147.083 44.832C146.75 44.6322 146.486 44.3567 146.293 44.0055C146.105 43.6544 146.011 43.2396 146.011 42.7613C146.011 42.289 146.105 41.8773 146.293 41.5261C146.48 41.1688 146.741 40.8933 147.074 40.6996C147.413 40.4998 147.803 40.3999 148.245 40.3999C148.681 40.3999 149.057 40.4998 149.371 40.6996C149.692 40.8933 149.938 41.1507 150.107 41.4716C150.277 41.7925 150.361 42.1376 150.361 42.507C150.361 42.5736 150.358 42.6402 150.352 42.7068C150.352 42.7734 150.352 42.8491 150.352 42.9338H146.765C146.783 43.279 146.862 43.5666 147.001 43.7966C147.146 44.0207 147.325 44.1902 147.537 44.3053C147.755 44.4203 147.985 44.4778 148.227 44.4778C148.542 44.4778 148.805 44.4052 149.017 44.2598C149.229 44.1145 149.384 43.9177 149.48 43.6695H150.234C150.113 44.0873 149.88 44.4354 149.535 44.714C149.196 44.9864 148.76 45.1227 148.227 45.1227ZM148.227 41.0447C147.864 41.0447 147.54 41.1567 147.255 41.3808C146.977 41.5987 146.816 41.9196 146.774 42.3435H149.608C149.589 41.9378 149.45 41.6199 149.19 41.3898C148.929 41.1598 148.608 41.0447 148.227 41.0447ZM154.461 45.1227C154.012 45.1227 153.619 45.0197 153.28 44.8139C152.947 44.608 152.686 44.3264 152.499 43.9692C152.317 43.612 152.226 43.2063 152.226 42.7522C152.226 42.2981 152.32 41.8954 152.508 41.5442C152.696 41.187 152.956 40.9085 153.289 40.7087C153.622 40.5028 154.016 40.3999 154.47 40.3999C154.839 40.3999 155.166 40.4756 155.451 40.6269C155.735 40.7783 155.956 40.9902 156.114 41.2627V38.4744H156.876V45.0137H156.186L156.114 44.2689C155.968 44.4869 155.759 44.6837 155.487 44.8593C155.214 45.0349 154.872 45.1227 154.461 45.1227ZM154.542 44.4597C154.845 44.4597 155.111 44.39 155.342 44.2508C155.578 44.1054 155.759 43.9056 155.886 43.6513C156.02 43.397 156.086 43.1003 156.086 42.7613C156.086 42.4222 156.02 42.1255 155.886 41.8712C155.759 41.6169 155.578 41.4201 155.342 41.2809C155.111 41.1355 154.845 41.0629 154.542 41.0629C154.246 41.0629 153.979 41.1355 153.743 41.2809C153.513 41.4201 153.331 41.6169 153.198 41.8712C153.071 42.1255 153.007 42.4222 153.007 42.7613C153.007 43.1003 153.071 43.397 153.198 43.6513C153.331 43.9056 153.513 44.1054 153.743 44.2508C153.979 44.39 154.246 44.4597 154.542 44.4597Z" fill="#212529"/>
<rect x="0.93457" width="32.1359" height="32.1359" rx="2.29818" fill="#764DCE"/>
<path d="M8.96886 8.32064C8.96886 8.00333 9.22609 7.74609 9.5434 7.74609H12.9852C13.3025 7.74609 13.5597 8.00333 13.5597 8.32064V12.3369H9.5434C9.22609 12.3369 8.96886 12.0797 8.96886 11.7624V8.32064Z" fill="white"/>
<path d="M14.1331 8.32064C14.1331 8.00333 14.3903 7.74609 14.7076 7.74609H19.8716H24.1748C24.4922 7.74609 24.7494 8.00333 24.7494 8.32064V11.7624C24.7494 12.0797 24.4922 12.3369 24.1748 12.3369H20.4462C20.1288 12.3369 19.8716 12.5942 19.8716 12.9115V22.0918C19.8716 22.4091 19.6144 22.6663 19.2971 22.6663H14.7076C14.3903 22.6663 14.1331 22.4091 14.1331 22.0918V8.32064Z" fill="white"/>
</svg>
