<svg width="504" height="302" viewBox="0 0 504 302" fill="none" xmlns="http://www.w3.org/2000/svg">
<g clip-path="url(#clip0_770_1183)">
<rect width="504" height="302" rx="8" fill="#0D0623"/>
<path opacity="0.05" d="M19.1904 302V0M46.4609 302V0M73.7315 302V0M101.002 302V0M128.273 302V0M155.543 302V0M182.814 302V0M210.084 302V0M237.355 302V0M265.272 302L264.625 0M292.543 302L291.896 0M319.813 302V9.34685e-05M347.084 302V9.34685e-05M374.354 302V9.34685e-05M401.625 302V9.34685e-05M428.896 302V9.34685e-05M456.166 302V9.34685e-05M483.437 302V9.34685e-05M0 0H504M0 21.5714H504M0 43.1429H504M0 64.7143H504M0 86.2857H504M0 107.857H504M0 129.429H504M0 151H504M0 172.571H504M0 194.143H504M0 215.714H504M0 237.286H504M0 258.857H504M0 280.429H504M0 302H504" stroke="url(#paint0_linear_770_1183)" stroke-width="2"/>
<path d="M180.865 141.24L178.26 167.325C178.191 167.817 178.229 168.318 178.373 168.794C178.517 169.269 178.762 169.708 179.093 170.079C179.423 170.45 179.831 170.744 180.287 170.942C180.743 171.139 181.236 171.234 181.733 171.222H241.109C242.162 171.196 243.172 170.792 243.951 170.082C244.731 169.373 245.229 168.406 245.354 167.359L247.958 141.274C248.009 140.788 247.96 140.298 247.815 139.832C247.597 139.12 247.154 138.499 246.552 138.062C245.95 137.626 245.222 137.397 244.479 137.412H185.11C184.314 137.43 183.538 137.665 182.865 138.09C182.192 138.515 181.647 139.114 181.289 139.825C181.063 140.267 180.919 140.746 180.865 141.24Z" fill="#A777FF"/>
<path opacity="0.3" d="M181.288 139.776L208.85 160.407C209.919 161.152 211.19 161.552 212.493 161.552C213.796 161.552 215.068 161.152 216.137 160.407L247.814 139.776C247.597 139.065 247.154 138.444 246.552 138.007C245.95 137.571 245.222 137.342 244.478 137.357H185.109C184.313 137.376 183.537 137.611 182.864 138.037C182.19 138.464 181.646 139.065 181.288 139.776Z" fill="black"/>
<path d="M194.324 143.632H226.248C227.651 143.601 228.996 143.063 230.035 142.119C231.074 141.174 231.736 139.886 231.901 138.492L236.515 92.3091C236.594 91.6585 236.533 90.9984 236.336 90.3734C236.138 89.7484 235.809 89.173 235.371 88.6859C234.932 88.1988 234.394 87.8113 233.793 87.5495C233.192 87.2878 232.542 87.1579 231.887 87.1686H199.964C198.56 87.2001 197.215 87.7376 196.176 88.6822C195.138 89.6268 194.475 90.9147 194.311 92.3091L189.703 138.492C189.622 139.142 189.681 139.802 189.877 140.428C190.074 141.054 190.402 141.63 190.84 142.117C191.278 142.605 191.816 142.992 192.417 143.254C193.019 143.515 193.669 143.644 194.324 143.632Z" fill="#A777FF"/>
<path opacity="0.5" d="M194.324 143.632H226.248C227.651 143.601 228.996 143.063 230.035 142.119C231.074 141.174 231.736 139.886 231.901 138.492L236.515 92.3091C236.594 91.6585 236.533 90.9984 236.336 90.3734C236.138 89.7484 235.809 89.173 235.371 88.6859C234.932 88.1988 234.394 87.8113 233.793 87.5495C233.192 87.2878 232.542 87.1579 231.887 87.1686H199.964C198.56 87.2001 197.215 87.7376 196.176 88.6822C195.138 89.6268 194.475 90.9147 194.311 92.3091L189.703 138.492C189.622 139.142 189.681 139.802 189.877 140.428C190.074 141.054 190.402 141.63 190.84 142.117C191.278 142.605 191.816 142.992 192.417 143.254C193.019 143.515 193.669 143.644 194.324 143.632Z" fill="white"/>
<path d="M199.793 112.01H227.102C227.417 112.003 227.718 111.881 227.951 111.669C228.183 111.457 228.331 111.168 228.367 110.855C228.386 110.709 228.373 110.56 228.329 110.419C228.285 110.279 228.211 110.149 228.112 110.039C228.014 109.93 227.892 109.843 227.757 109.784C227.622 109.725 227.475 109.697 227.328 109.7H200.053C199.738 109.706 199.436 109.825 199.203 110.036C198.969 110.247 198.82 110.536 198.782 110.848C198.763 110.993 198.776 111.139 198.818 111.278C198.86 111.418 198.932 111.546 199.027 111.656C199.123 111.766 199.24 111.854 199.372 111.915C199.504 111.976 199.648 112.009 199.793 112.01Z" fill="white"/>
<path d="M199.075 119.207H226.384C226.698 119.199 227 119.078 227.232 118.866C227.464 118.654 227.612 118.365 227.648 118.052C227.666 117.906 227.652 117.758 227.608 117.618C227.563 117.478 227.489 117.35 227.391 117.241C227.292 117.132 227.172 117.045 227.037 116.987C226.902 116.929 226.756 116.901 226.609 116.904H199.266C198.952 116.91 198.651 117.029 198.419 117.241C198.186 117.452 198.038 117.74 198.002 118.052C197.984 118.201 197.998 118.352 198.045 118.495C198.091 118.638 198.168 118.769 198.27 118.879C198.372 118.989 198.497 119.075 198.636 119.132C198.775 119.189 198.925 119.214 199.075 119.207Z" fill="white"/>
<path d="M225.776 124.095H198.474C197.836 124.095 197.318 124.611 197.318 125.247C197.318 125.883 197.836 126.399 198.474 126.399H225.776C226.414 126.399 226.931 125.883 226.931 125.247C226.931 124.611 226.414 124.095 225.776 124.095Z" fill="white"/>
<path d="M204.079 133.625H224.941C225.257 133.618 225.56 133.498 225.794 133.286C226.028 133.073 226.177 132.783 226.213 132.469C226.23 132.323 226.217 132.175 226.172 132.035C226.128 131.894 226.054 131.765 225.956 131.656C225.857 131.547 225.736 131.459 225.602 131.4C225.467 131.341 225.321 131.312 225.174 131.314H204.311C203.995 131.32 203.692 131.441 203.459 131.653C203.225 131.866 203.076 132.156 203.04 132.469C203.022 132.615 203.036 132.764 203.08 132.904C203.125 133.044 203.199 133.173 203.297 133.283C203.395 133.392 203.516 133.479 203.651 133.538C203.786 133.597 203.932 133.627 204.079 133.625Z" fill="white"/>
<path d="M201.228 97.6131H228.572C228.886 97.6053 229.187 97.4841 229.42 97.2718C229.652 97.0595 229.8 96.7705 229.836 96.4578C229.849 96.3118 229.831 96.1647 229.782 96.0264C229.733 95.8881 229.655 95.7619 229.553 95.6563C229.452 95.5507 229.328 95.4682 229.192 95.4142C229.056 95.3603 228.909 95.3362 228.763 95.3436H201.461C201.146 95.351 200.845 95.4709 200.612 95.6817C200.379 95.8925 200.229 96.18 200.189 96.492C200.177 96.6354 200.195 96.7798 200.241 96.916C200.288 97.0521 200.363 97.177 200.461 97.2826C200.559 97.3882 200.677 97.4721 200.81 97.529C200.942 97.5859 201.084 97.6146 201.228 97.6131Z" fill="white"/>
<path d="M200.511 104.812H227.854C228.169 104.804 228.47 104.683 228.703 104.471C228.935 104.259 229.083 103.97 229.119 103.657C229.137 103.511 229.123 103.363 229.078 103.223C229.034 103.083 228.96 102.955 228.861 102.846C228.763 102.737 228.642 102.65 228.507 102.592C228.373 102.534 228.227 102.505 228.08 102.509H200.737C200.422 102.514 200.12 102.634 199.886 102.845C199.653 103.056 199.503 103.344 199.465 103.657C199.448 103.804 199.462 103.952 199.507 104.093C199.551 104.234 199.626 104.363 199.725 104.473C199.824 104.582 199.946 104.669 200.081 104.728C200.217 104.786 200.364 104.815 200.511 104.812Z" fill="white"/>
<path d="M219.323 216.966L221.052 199.658C221.114 199.148 221.065 198.63 220.91 198.14C220.755 197.65 220.497 197.199 220.153 196.817C219.809 196.435 219.388 196.131 218.917 195.925C218.446 195.72 217.936 195.617 217.422 195.625H181.193C180.091 195.65 179.036 196.072 178.221 196.813C177.406 197.554 176.886 198.564 176.756 199.658L175.027 216.966C174.964 217.477 175.012 217.995 175.166 218.485C175.321 218.976 175.579 219.427 175.923 219.81C176.267 220.192 176.689 220.496 177.161 220.701C177.632 220.906 178.142 221.008 178.657 220.999H214.886C215.988 220.976 217.044 220.554 217.859 219.813C218.674 219.072 219.194 218.061 219.323 216.966Z" fill="#A777FF"/>
<path d="M197.647 212.133C197.804 212.133 197.958 212.088 198.091 212.003L217.915 200.218C218.104 200.114 218.247 199.941 218.314 199.736C218.381 199.53 218.368 199.307 218.277 199.111C218.225 199.021 218.154 198.942 218.07 198.88C217.986 198.817 217.89 198.773 217.788 198.749C217.686 198.726 217.581 198.723 217.478 198.742C217.375 198.76 217.277 198.8 217.19 198.858L197.852 210.376L180.81 198.858C180.624 198.748 180.403 198.712 180.192 198.759C179.982 198.806 179.797 198.932 179.675 199.111C179.609 199.192 179.56 199.285 179.531 199.386C179.502 199.487 179.494 199.592 179.507 199.696C179.521 199.8 179.555 199.899 179.609 199.989C179.663 200.079 179.734 200.157 179.819 200.218L197.257 212.003C197.37 212.085 197.506 212.131 197.647 212.133Z" fill="white"/>
<path d="M310.84 109.187L313.041 87.1411C313.12 86.4905 313.059 85.8304 312.862 85.2054C312.664 84.5804 312.335 84.005 311.897 83.5179C311.458 83.0308 310.92 82.6433 310.32 82.3816C309.719 82.1198 309.069 81.9899 308.413 82.0006H262.258C260.855 82.035 259.512 82.5735 258.474 83.5175C257.435 84.4615 256.772 85.7479 256.605 87.1411L254.404 109.193C254.325 109.844 254.386 110.504 254.583 111.129C254.78 111.754 255.11 112.329 255.548 112.817C255.987 113.304 256.524 113.691 257.125 113.953C257.726 114.215 258.376 114.345 259.032 114.334H305.187C306.591 114.299 307.935 113.76 308.973 112.814C310.012 111.869 310.674 110.581 310.84 109.187Z" fill="#A777FF"/>
<path opacity="0.5" d="M310.84 109.187L313.041 87.1411C313.12 86.4905 313.059 85.8304 312.862 85.2054C312.664 84.5804 312.335 84.005 311.897 83.5179C311.458 83.0308 310.92 82.6433 310.32 82.3816C309.719 82.1198 309.069 81.9899 308.413 82.0006H262.258C260.855 82.035 259.512 82.5735 258.474 83.5175C257.435 84.4615 256.772 85.7479 256.605 87.1411L254.404 109.193C254.325 109.844 254.386 110.504 254.583 111.129C254.78 111.754 255.11 112.329 255.548 112.817C255.987 113.304 256.524 113.691 257.125 113.953C257.726 114.215 258.376 114.345 259.032 114.334H305.187C306.591 114.299 307.935 113.76 308.973 112.814C310.012 111.869 310.674 110.581 310.84 109.187Z" fill="black"/>
<path d="M283.217 103.028C283.418 103.026 283.614 102.969 283.784 102.863L309.008 87.8248C309.249 87.6914 309.429 87.472 309.514 87.2107C309.599 86.9495 309.582 86.6657 309.466 86.4166C309.399 86.3041 309.31 86.2063 309.204 86.129C309.099 86.0516 308.978 85.9963 308.851 85.9664C308.723 85.9364 308.591 85.9324 308.462 85.9545C308.333 85.9767 308.209 86.0245 308.099 86.0953L283.449 100.813L261.732 86.1158C261.497 85.9737 261.217 85.9272 260.948 85.9857C260.68 86.0441 260.444 86.2033 260.29 86.4303C260.204 86.5331 260.141 86.6524 260.104 86.7807C260.066 86.909 260.055 87.0436 260.072 87.1763C260.089 87.3089 260.132 87.4367 260.2 87.5517C260.268 87.6668 260.359 87.7667 260.467 87.8453L282.684 102.884C282.843 102.984 283.029 103.034 283.217 103.028Z" fill="white"/>
<g filter="url(#filter0_f_770_1183)">
<path d="M241.5 169H366.5C370.918 169 374.5 165.418 374.5 161V65.5" stroke="#A777FF" stroke-linecap="round"/>
</g>
<g filter="url(#filter1_f_770_1183)">
<path d="M182 151H136.5C132.082 151 128.5 154.582 128.5 159V236.5" stroke="#A777FF" stroke-linecap="round"/>
</g>
<circle cx="284" cy="160" r="23" fill="#D3BBFF"/>
<circle cx="284" cy="160" r="22.5" stroke="#A777FF" stroke-opacity="0.6"/>
<path d="M295.482 147.019L284.484 143.015L273.608 146.966C272.219 147.629 271 148.03 271 149.341V155.881C270.975 160.474 272.212 164.984 274.573 168.904C276.932 172.86 280.428 175.99 284.591 177.874C289.024 176.41 292.349 172.5 294.399 169.159C296.767 165.24 298.01 160.73 297.99 156.135V150.255C297.99 148.382 297.007 147.468 295.482 147.019Z" fill="#A777FF"/>
<g opacity="0.3">
<path d="M284.591 174.07C281.292 172.561 278.527 170.064 276.667 166.916C274.796 163.818 273.812 160.252 273.826 156.619V152.05C273.826 151.008 274.447 150.034 275.674 149.454L284.488 146.113V143.03L273.608 146.967C272.467 147.472 271 148.031 271 149.342V155.881C270.975 160.474 272.212 164.984 274.573 168.904C276.932 172.861 280.428 175.991 284.591 177.875V174.07Z" fill="black"/>
</g>
<g opacity="0.4">
<path d="M284.591 177.863C285.337 177.616 286.061 177.303 286.752 176.927C288.454 175.951 290 174.722 291.341 173.279C292.552 171.955 293.619 170.502 294.521 168.945C296.916 164.998 298.122 160.427 297.99 155.795V150.397C297.99 147.708 296.623 147.51 295.478 147.004L284.48 143V146.083L293.398 149.48C294.625 150.06 295.245 151.034 295.245 152.072V156.66C295.26 160.292 294.276 163.856 292.404 166.953C290.585 170.087 287.853 172.573 284.584 174.069L284.591 177.863Z" fill="black"/>
</g>
<path opacity="0.5" d="M287.403 156.327V155.443C287.403 154.675 287.102 153.939 286.566 153.396C286.031 152.853 285.304 152.548 284.547 152.548C283.79 152.548 283.063 152.853 282.528 153.396C281.992 153.939 281.691 154.675 281.691 155.443V156.342C281.314 156.399 280.968 156.592 280.719 156.886C280.47 157.179 280.332 157.554 280.332 157.941V163.148C280.332 163.577 280.5 163.988 280.799 164.292C281.099 164.595 281.505 164.766 281.928 164.766H287.277C287.7 164.766 288.106 164.595 288.406 164.292C288.705 163.988 288.873 163.577 288.873 163.148V157.941C288.873 157.534 288.722 157.142 288.45 156.842C288.177 156.543 287.803 156.359 287.403 156.327ZM285.323 161.848H283.926L284.144 160.825C283.992 160.725 283.875 160.576 283.812 160.403C283.749 160.229 283.743 160.04 283.795 159.863C283.847 159.685 283.954 159.53 284.1 159.419C284.246 159.309 284.424 159.249 284.606 159.249C284.789 159.249 284.966 159.309 285.112 159.419C285.258 159.53 285.365 159.685 285.417 159.863C285.469 160.04 285.463 160.229 285.4 160.403C285.337 160.576 285.221 160.725 285.068 160.825C285.164 161.208 285.323 161.848 285.323 161.848ZM286.801 156.32H282.308V155.443C282.332 154.857 282.578 154.302 282.996 153.895C283.413 153.489 283.97 153.262 284.549 153.262C285.128 153.262 285.684 153.489 286.102 153.895C286.52 154.302 286.766 154.857 286.789 155.443L286.801 156.32Z" fill="white"/>
<path d="M275.611 156.263C275.515 155.97 275.459 155.665 275.445 155.356C275.363 154.619 275.333 153.877 275.356 153.135C275.356 152.701 275.397 152.289 275.434 151.914C275.452 151.573 275.536 151.238 275.681 150.929C275.785 150.718 275.954 150.545 276.162 150.438C276.313 150.367 276.405 150.371 276.405 150.382C276.14 150.506 275.927 150.721 275.803 150.989C275.685 151.289 275.62 151.607 275.611 151.929C275.582 152.304 275.559 152.712 275.548 153.143C275.522 154 275.548 154.78 275.582 155.345C275.615 155.65 275.625 155.957 275.611 156.263Z" fill="white"/>
<path d="M275.77 159.106C275.718 159.106 275.67 158.84 275.663 158.506C275.656 158.173 275.696 157.903 275.748 157.903C275.799 157.903 275.847 158.169 275.855 158.503C275.862 158.836 275.825 159.106 275.77 159.106Z" fill="white"/>
<rect x="84" y="237.5" width="89" height="27" rx="13.5" fill="#17063B"/>
<path d="M106.124 244.667L109.834 248.377V253.624L106.124 257.334H100.877L97.167 253.624V248.377L100.877 244.667H106.124ZM102.833 253V254.334H104.167V253H102.833ZM102.833 247.667V251.667H104.167V247.667H102.833Z" fill="url(#paint1_linear_770_1183)"/>
<path d="M122.263 247.4V254H120.683L118.373 250.12L117.803 249.04H117.793L117.833 250.18V254H116.593V247.4H118.163L120.473 251.27L121.043 252.36H121.063L121.023 251.22V247.4H122.263ZM126.476 248.9C126.983 248.9 127.426 249.003 127.806 249.21C128.193 249.417 128.493 249.713 128.706 250.1C128.926 250.487 129.036 250.953 129.036 251.5C129.036 252.04 128.926 252.507 128.706 252.9C128.493 253.287 128.193 253.583 127.806 253.79C127.426 253.997 126.983 254.1 126.476 254.1C125.976 254.1 125.533 253.997 125.146 253.79C124.76 253.583 124.456 253.287 124.236 252.9C124.023 252.507 123.916 252.04 123.916 251.5C123.916 250.953 124.023 250.487 124.236 250.1C124.456 249.713 124.76 249.417 125.146 249.21C125.533 249.003 125.976 248.9 126.476 248.9ZM126.476 249.92C126.223 249.92 126.006 249.98 125.826 250.1C125.653 250.213 125.52 250.387 125.426 250.62C125.333 250.853 125.286 251.147 125.286 251.5C125.286 251.853 125.333 252.147 125.426 252.38C125.52 252.613 125.653 252.79 125.826 252.91C126.006 253.023 126.223 253.08 126.476 253.08C126.723 253.08 126.933 253.023 127.106 252.91C127.286 252.79 127.423 252.613 127.516 252.38C127.61 252.147 127.656 251.853 127.656 251.5C127.656 251.147 127.61 250.853 127.516 250.62C127.423 250.387 127.286 250.213 127.106 250.1C126.933 249.98 126.723 249.92 126.476 249.92ZM136.039 254.1C135.533 254.1 135.069 254.01 134.649 253.83C134.236 253.65 133.899 253.397 133.639 253.07L134.429 252.27C134.589 252.51 134.803 252.707 135.069 252.86C135.336 253.013 135.653 253.09 136.019 253.09C136.279 253.09 136.486 253.053 136.639 252.98C136.799 252.9 136.879 252.777 136.879 252.61C136.879 252.503 136.843 252.413 136.769 252.34C136.696 252.26 136.549 252.197 136.329 252.15L135.449 251.97C134.869 251.85 134.456 251.67 134.209 251.43C133.969 251.183 133.849 250.867 133.849 250.48C133.849 250.207 133.929 249.95 134.089 249.71C134.256 249.47 134.503 249.277 134.829 249.13C135.156 248.977 135.563 248.9 136.049 248.9C136.549 248.9 136.983 248.98 137.349 249.14C137.723 249.293 138.016 249.523 138.229 249.83L137.409 250.63C137.263 250.397 137.069 250.22 136.829 250.1C136.596 249.973 136.349 249.91 136.089 249.91C135.903 249.91 135.743 249.93 135.609 249.97C135.476 250.01 135.376 250.067 135.309 250.14C135.243 250.207 135.209 250.293 135.209 250.4C135.209 250.507 135.256 250.6 135.349 250.68C135.443 250.753 135.613 250.817 135.859 250.87L136.879 251.08C137.373 251.18 137.726 251.35 137.939 251.59C138.153 251.823 138.259 252.107 138.259 252.44C138.259 252.76 138.173 253.047 137.999 253.3C137.833 253.547 137.583 253.743 137.249 253.89C136.923 254.03 136.519 254.1 136.039 254.1ZM139.752 256.1V249H140.982L141.072 250.59L140.902 250.41C140.962 250.117 141.072 249.857 141.232 249.63C141.399 249.403 141.609 249.227 141.862 249.1C142.115 248.967 142.399 248.9 142.712 248.9C143.119 248.9 143.482 249.003 143.802 249.21C144.122 249.417 144.372 249.713 144.552 250.1C144.739 250.48 144.832 250.943 144.832 251.49C144.832 252.037 144.739 252.507 144.552 252.9C144.365 253.287 144.109 253.583 143.782 253.79C143.462 253.997 143.095 254.1 142.682 254.1C142.242 254.1 141.875 253.977 141.582 253.73C141.295 253.483 141.099 253.173 140.992 252.8L141.122 252.59V256.1H139.752ZM142.282 253.05C142.649 253.05 142.935 252.92 143.142 252.66C143.355 252.393 143.462 252.007 143.462 251.5C143.462 250.993 143.359 250.61 143.152 250.35C142.952 250.083 142.669 249.95 142.302 249.95C142.069 249.95 141.862 250.013 141.682 250.14C141.509 250.26 141.372 250.437 141.272 250.67C141.172 250.897 141.122 251.173 141.122 251.5C141.122 251.82 141.169 252.097 141.262 252.33C141.355 252.563 141.489 252.743 141.662 252.87C141.842 252.99 142.049 253.05 142.282 253.05ZM149.242 250.81C149.242 250.523 149.159 250.3 148.992 250.14C148.832 249.98 148.619 249.9 148.352 249.9C148.105 249.9 147.889 249.963 147.702 250.09C147.515 250.217 147.379 250.427 147.292 250.72L146.122 250.36C146.235 249.92 146.482 249.567 146.862 249.3C147.249 249.033 147.765 248.9 148.412 248.9C148.852 248.9 149.235 248.97 149.562 249.11C149.889 249.243 150.142 249.447 150.322 249.72C150.509 249.993 150.602 250.337 150.602 250.75V252.78C150.602 253.033 150.722 253.16 150.962 253.16C151.075 253.16 151.182 253.143 151.282 253.11L151.202 253.96C151.029 254.047 150.812 254.09 150.552 254.09C150.319 254.09 150.109 254.05 149.922 253.97C149.735 253.89 149.589 253.77 149.482 253.61C149.375 253.443 149.322 253.237 149.322 252.99V252.95L149.562 252.91C149.522 253.163 149.412 253.38 149.232 253.56C149.052 253.733 148.832 253.867 148.572 253.96C148.319 254.053 148.055 254.1 147.782 254.1C147.442 254.1 147.149 254.05 146.902 253.95C146.655 253.843 146.465 253.69 146.332 253.49C146.199 253.29 146.132 253.043 146.132 252.75C146.132 252.377 146.252 252.073 146.492 251.84C146.732 251.6 147.075 251.437 147.522 251.35L149.402 250.97L149.392 251.82L148.192 252.06C147.965 252.107 147.792 252.17 147.672 252.25C147.559 252.323 147.502 252.447 147.502 252.62C147.502 252.787 147.562 252.913 147.682 253C147.809 253.087 147.959 253.13 148.132 253.13C148.272 253.13 148.409 253.113 148.542 253.08C148.675 253.047 148.795 252.993 148.902 252.92C149.009 252.847 149.092 252.747 149.152 252.62C149.212 252.493 149.242 252.34 149.242 252.16V250.81ZM152.534 254V249H153.764L153.814 249.9C153.981 249.567 154.208 249.317 154.494 249.15C154.788 248.983 155.111 248.9 155.464 248.9C155.824 248.9 156.148 248.983 156.434 249.15C156.728 249.317 156.948 249.563 157.094 249.89C157.201 249.67 157.344 249.487 157.524 249.34C157.704 249.193 157.904 249.083 158.124 249.01C158.344 248.937 158.568 248.9 158.794 248.9C159.121 248.9 159.418 248.967 159.684 249.1C159.958 249.233 160.174 249.433 160.334 249.7C160.494 249.967 160.574 250.307 160.574 250.72V254H159.204V250.99C159.204 250.623 159.124 250.363 158.964 250.21C158.804 250.057 158.598 249.98 158.344 249.98C158.144 249.98 157.958 250.03 157.784 250.13C157.618 250.23 157.484 250.38 157.384 250.58C157.291 250.773 157.244 251.017 157.244 251.31V254H155.874V250.99C155.874 250.623 155.791 250.363 155.624 250.21C155.464 250.057 155.258 249.98 155.004 249.98C154.831 249.98 154.658 250.027 154.484 250.12C154.318 250.213 154.178 250.36 154.064 250.56C153.958 250.76 153.904 251.023 153.904 251.35V254H152.534Z" fill="url(#paint2_linear_770_1183)"/>
<rect x="84" y="237.5" width="89" height="27" rx="13.5" stroke="#2F1566"/>
<rect x="285.5" y="38.5" width="187" height="27" rx="13.5" fill="#17063B"/>
<path d="M309.667 50.6668H310.333C310.702 50.6668 311 50.9653 311 51.3335V58.0002C311 58.3684 310.702 58.6668 310.333 58.6668H299.667C299.298 58.6668 299 58.3684 299 58.0002V51.3335C299 50.9653 299.298 50.6668 299.667 50.6668H300.333V50.0002C300.333 47.4228 302.423 45.3335 305 45.3335C307.577 45.3335 309.667 47.4228 309.667 50.0002V50.6668ZM308.333 50.6668V50.0002C308.333 48.1592 306.841 46.6668 305 46.6668C303.159 46.6668 301.667 48.1592 301.667 50.0002V50.6668H308.333ZM304.333 53.3335V56.0002H305.667V53.3335H304.333Z" fill="url(#paint3_linear_770_1183)"/>
<path d="M323.495 48.4L321.155 52.53V55H319.775V52.53L317.435 48.4H318.905L319.965 50.38L320.465 51.41L320.975 50.38L322.035 48.4H323.495ZM326.038 49.9C326.545 49.9 326.988 50.0033 327.368 50.21C327.755 50.4167 328.055 50.7133 328.268 51.1C328.488 51.4867 328.598 51.9533 328.598 52.5C328.598 53.04 328.488 53.5067 328.268 53.9C328.055 54.2867 327.755 54.5833 327.368 54.79C326.988 54.9967 326.545 55.1 326.038 55.1C325.538 55.1 325.095 54.9967 324.708 54.79C324.321 54.5833 324.018 54.2867 323.798 53.9C323.585 53.5067 323.478 53.04 323.478 52.5C323.478 51.9533 323.585 51.4867 323.798 51.1C324.018 50.7133 324.321 50.4167 324.708 50.21C325.095 50.0033 325.538 49.9 326.038 49.9ZM326.038 50.92C325.785 50.92 325.568 50.98 325.388 51.1C325.215 51.2133 325.081 51.3867 324.988 51.62C324.895 51.8533 324.848 52.1467 324.848 52.5C324.848 52.8533 324.895 53.1467 324.988 53.38C325.081 53.6133 325.215 53.79 325.388 53.91C325.568 54.0233 325.785 54.08 326.038 54.08C326.285 54.08 326.495 54.0233 326.668 53.91C326.848 53.79 326.985 53.6133 327.078 53.38C327.171 53.1467 327.218 52.8533 327.218 52.5C327.218 52.1467 327.171 51.8533 327.078 51.62C326.985 51.3867 326.848 51.2133 326.668 51.1C326.495 50.98 326.285 50.92 326.038 50.92ZM331.884 55.1C331.551 55.1 331.251 55.04 330.984 54.92C330.718 54.8 330.504 54.61 330.344 54.35C330.191 54.0833 330.114 53.74 330.114 53.32V50H331.484V52.99C331.484 53.3767 331.564 53.6467 331.724 53.8C331.884 53.9467 332.114 54.02 332.414 54.02C332.554 54.02 332.691 53.9967 332.824 53.95C332.958 53.8967 333.074 53.8167 333.174 53.71C333.281 53.6033 333.364 53.4667 333.424 53.3C333.484 53.1267 333.514 52.9233 333.514 52.69V50H334.884V55H333.664L333.614 54.13C333.448 54.4633 333.218 54.71 332.924 54.87C332.638 55.0233 332.291 55.1 331.884 55.1ZM336.726 55V50H337.916L338.006 50.98C338.139 50.6333 338.333 50.3667 338.586 50.18C338.846 49.9933 339.169 49.9 339.556 49.9C339.669 49.9 339.773 49.91 339.866 49.93C339.959 49.95 340.036 49.9767 340.096 50.01L339.936 51.16C339.869 51.1333 339.786 51.1133 339.686 51.1C339.593 51.0867 339.469 51.08 339.316 51.08C339.116 51.08 338.923 51.13 338.736 51.23C338.549 51.3233 338.396 51.47 338.276 51.67C338.156 51.8633 338.096 52.11 338.096 52.41V55H336.726ZM346.506 55.1C346.092 55.1 345.722 54.9967 345.396 54.79C345.076 54.5833 344.822 54.2867 344.636 53.9C344.456 53.5133 344.366 53.05 344.366 52.51C344.366 51.9567 344.462 51.4867 344.656 51.1C344.849 50.7067 345.109 50.41 345.436 50.21C345.769 50.0033 346.142 49.9 346.556 49.9C346.996 49.9 347.359 50.0267 347.646 50.28C347.932 50.5333 348.119 50.86 348.206 51.26L348.076 51.42V47.81H349.446V55H348.216L348.126 53.48L348.296 53.56C348.249 53.8733 348.142 54.1467 347.976 54.38C347.809 54.6067 347.599 54.7833 347.346 54.91C347.092 55.0367 346.812 55.1 346.506 55.1ZM346.906 54.05C347.146 54.05 347.352 53.99 347.526 53.87C347.699 53.7433 347.832 53.56 347.926 53.32C348.026 53.08 348.076 52.7933 348.076 52.46C348.076 52.14 348.029 51.87 347.936 51.65C347.842 51.4233 347.709 51.25 347.536 51.13C347.362 51.01 347.159 50.95 346.926 50.95C346.552 50.95 346.259 51.0833 346.046 51.35C345.839 51.61 345.736 51.9933 345.736 52.5C345.736 53.0067 345.839 53.3933 346.046 53.66C346.252 53.92 346.539 54.05 346.906 54.05ZM354.135 51.81C354.135 51.5233 354.052 51.3 353.885 51.14C353.725 50.98 353.512 50.9 353.245 50.9C352.999 50.9 352.782 50.9633 352.595 51.09C352.409 51.2167 352.272 51.4267 352.185 51.72L351.015 51.36C351.129 50.92 351.375 50.5667 351.755 50.3C352.142 50.0333 352.659 49.9 353.305 49.9C353.745 49.9 354.129 49.97 354.455 50.11C354.782 50.2433 355.035 50.4467 355.215 50.72C355.402 50.9933 355.495 51.3367 355.495 51.75V53.78C355.495 54.0333 355.615 54.16 355.855 54.16C355.969 54.16 356.075 54.1433 356.175 54.11L356.095 54.96C355.922 55.0467 355.705 55.09 355.445 55.09C355.212 55.09 355.002 55.05 354.815 54.97C354.629 54.89 354.482 54.77 354.375 54.61C354.269 54.4433 354.215 54.2367 354.215 53.99V53.95L354.455 53.91C354.415 54.1633 354.305 54.38 354.125 54.56C353.945 54.7333 353.725 54.8667 353.465 54.96C353.212 55.0533 352.949 55.1 352.675 55.1C352.335 55.1 352.042 55.05 351.795 54.95C351.549 54.8433 351.359 54.69 351.225 54.49C351.092 54.29 351.025 54.0433 351.025 53.75C351.025 53.3767 351.145 53.0733 351.385 52.84C351.625 52.6 351.969 52.4367 352.415 52.35L354.295 51.97L354.285 52.82L353.085 53.06C352.859 53.1067 352.685 53.17 352.565 53.25C352.452 53.3233 352.395 53.4467 352.395 53.62C352.395 53.7867 352.455 53.9133 352.575 54C352.702 54.0867 352.852 54.13 353.025 54.13C353.165 54.13 353.302 54.1133 353.435 54.08C353.569 54.0467 353.689 53.9933 353.795 53.92C353.902 53.8467 353.985 53.7467 354.045 53.62C354.105 53.4933 354.135 53.34 354.135 53.16V51.81ZM359.002 48.47V53.37C359.002 53.61 359.062 53.7867 359.182 53.9C359.309 54.0067 359.479 54.06 359.692 54.06C359.859 54.06 360.005 54.0367 360.132 53.99C360.259 53.9367 360.372 53.8667 360.472 53.78L360.692 54.69C360.532 54.8167 360.332 54.9167 360.092 54.99C359.852 55.0633 359.599 55.1 359.332 55.1C358.999 55.1 358.702 55.05 358.442 54.95C358.189 54.85 357.989 54.69 357.842 54.47C357.702 54.25 357.632 53.9567 357.632 53.59V48.85L359.002 48.47ZM360.602 50V51.02H356.712V50H360.602ZM364.828 51.81C364.828 51.5233 364.744 51.3 364.578 51.14C364.418 50.98 364.204 50.9 363.938 50.9C363.691 50.9 363.474 50.9633 363.288 51.09C363.101 51.2167 362.964 51.4267 362.878 51.72L361.708 51.36C361.821 50.92 362.068 50.5667 362.448 50.3C362.834 50.0333 363.351 49.9 363.998 49.9C364.438 49.9 364.821 49.97 365.148 50.11C365.474 50.2433 365.728 50.4467 365.908 50.72C366.094 50.9933 366.188 51.3367 366.188 51.75V53.78C366.188 54.0333 366.308 54.16 366.548 54.16C366.661 54.16 366.768 54.1433 366.868 54.11L366.788 54.96C366.614 55.0467 366.398 55.09 366.138 55.09C365.904 55.09 365.694 55.05 365.508 54.97C365.321 54.89 365.174 54.77 365.068 54.61C364.961 54.4433 364.908 54.2367 364.908 53.99V53.95L365.148 53.91C365.108 54.1633 364.998 54.38 364.818 54.56C364.638 54.7333 364.418 54.8667 364.158 54.96C363.904 55.0533 363.641 55.1 363.368 55.1C363.028 55.1 362.734 55.05 362.488 54.95C362.241 54.8433 362.051 54.69 361.918 54.49C361.784 54.29 361.718 54.0433 361.718 53.75C361.718 53.3767 361.838 53.0733 362.078 52.84C362.318 52.6 362.661 52.4367 363.108 52.35L364.988 51.97L364.978 52.82L363.778 53.06C363.551 53.1067 363.378 53.17 363.258 53.25C363.144 53.3233 363.088 53.4467 363.088 53.62C363.088 53.7867 363.148 53.9133 363.268 54C363.394 54.0867 363.544 54.13 363.718 54.13C363.858 54.13 363.994 54.1133 364.128 54.08C364.261 54.0467 364.381 53.9933 364.488 53.92C364.594 53.8467 364.678 53.7467 364.738 53.62C364.798 53.4933 364.828 53.34 364.828 53.16V51.81ZM372.12 49.28C371.833 49.28 371.62 49.22 371.48 49.1C371.34 48.9733 371.27 48.79 371.27 48.55C371.27 48.3033 371.34 48.12 371.48 48C371.62 47.8733 371.833 47.81 372.12 47.81C372.407 47.81 372.62 47.8733 372.76 48C372.9 48.12 372.97 48.3033 372.97 48.55C372.97 48.79 372.9 48.9733 372.76 49.1C372.62 49.22 372.407 49.28 372.12 49.28ZM372.8 50V55H371.43V50H372.8ZM376.652 55.1C376.146 55.1 375.682 55.01 375.262 54.83C374.849 54.65 374.512 54.3967 374.252 54.07L375.042 53.27C375.202 53.51 375.416 53.7067 375.682 53.86C375.949 54.0133 376.266 54.09 376.632 54.09C376.892 54.09 377.099 54.0533 377.252 53.98C377.412 53.9 377.492 53.7767 377.492 53.61C377.492 53.5033 377.456 53.4133 377.382 53.34C377.309 53.26 377.162 53.1967 376.942 53.15L376.062 52.97C375.482 52.85 375.069 52.67 374.822 52.43C374.582 52.1833 374.462 51.8667 374.462 51.48C374.462 51.2067 374.542 50.95 374.702 50.71C374.869 50.47 375.116 50.2767 375.442 50.13C375.769 49.9767 376.176 49.9 376.662 49.9C377.162 49.9 377.596 49.98 377.962 50.14C378.336 50.2933 378.629 50.5233 378.842 50.83L378.022 51.63C377.876 51.3967 377.682 51.22 377.442 51.1C377.209 50.9733 376.962 50.91 376.702 50.91C376.516 50.91 376.356 50.93 376.222 50.97C376.089 51.01 375.989 51.0667 375.922 51.14C375.856 51.2067 375.822 51.2933 375.822 51.4C375.822 51.5067 375.869 51.6 375.962 51.68C376.056 51.7533 376.226 51.8167 376.472 51.87L377.492 52.08C377.986 52.18 378.339 52.35 378.552 52.59C378.766 52.8233 378.872 53.1067 378.872 53.44C378.872 53.76 378.786 54.0467 378.612 54.3C378.446 54.5467 378.196 54.7433 377.862 54.89C377.536 55.03 377.132 55.1 376.652 55.1ZM385.822 55.1C385.315 55.1 384.852 55.01 384.432 54.83C384.018 54.65 383.682 54.3967 383.422 54.07L384.212 53.27C384.372 53.51 384.585 53.7067 384.852 53.86C385.118 54.0133 385.435 54.09 385.802 54.09C386.062 54.09 386.268 54.0533 386.422 53.98C386.582 53.9 386.662 53.7767 386.662 53.61C386.662 53.5033 386.625 53.4133 386.552 53.34C386.478 53.26 386.332 53.1967 386.112 53.15L385.232 52.97C384.652 52.85 384.238 52.67 383.992 52.43C383.752 52.1833 383.632 51.8667 383.632 51.48C383.632 51.2067 383.712 50.95 383.872 50.71C384.038 50.47 384.285 50.2767 384.612 50.13C384.938 49.9767 385.345 49.9 385.832 49.9C386.332 49.9 386.765 49.98 387.132 50.14C387.505 50.2933 387.798 50.5233 388.012 50.83L387.192 51.63C387.045 51.3967 386.852 51.22 386.612 51.1C386.378 50.9733 386.132 50.91 385.872 50.91C385.685 50.91 385.525 50.93 385.392 50.97C385.258 51.01 385.158 51.0667 385.092 51.14C385.025 51.2067 384.992 51.2933 384.992 51.4C384.992 51.5067 385.038 51.6 385.132 51.68C385.225 51.7533 385.395 51.8167 385.642 51.87L386.662 52.08C387.155 52.18 387.508 52.35 387.722 52.59C387.935 52.8233 388.042 53.1067 388.042 53.44C388.042 53.76 387.955 54.0467 387.782 54.3C387.615 54.5467 387.365 54.7433 387.032 54.89C386.705 55.03 386.302 55.1 385.822 55.1ZM391.835 55.1C391.308 55.1 390.848 54.9967 390.455 54.79C390.068 54.5833 389.768 54.2867 389.555 53.9C389.341 53.5133 389.235 53.0467 389.235 52.5C389.235 51.9533 389.341 51.4867 389.555 51.1C389.768 50.7133 390.065 50.4167 390.445 50.21C390.831 50.0033 391.271 49.9 391.765 49.9C392.271 49.9 392.701 50.0033 393.055 50.21C393.408 50.41 393.678 50.6867 393.865 51.04C394.051 51.3867 394.145 51.7833 394.145 52.23C394.145 52.3633 394.141 52.49 394.135 52.61C394.128 52.73 394.118 52.8367 394.105 52.93H390.115V51.98H393.505L392.845 52.22C392.845 51.8 392.748 51.4767 392.555 51.25C392.368 51.0233 392.101 50.91 391.755 50.91C391.501 50.91 391.281 50.97 391.095 51.09C390.915 51.21 390.778 51.39 390.685 51.63C390.591 51.8633 390.545 52.16 390.545 52.52C390.545 52.8733 390.595 53.1667 390.695 53.4C390.801 53.6267 390.948 53.7967 391.135 53.91C391.328 54.0233 391.558 54.08 391.825 54.08C392.118 54.08 392.355 54.0233 392.535 53.91C392.715 53.7967 392.855 53.64 392.955 53.44L394.045 53.86C393.938 54.12 393.775 54.3433 393.555 54.53C393.341 54.7167 393.085 54.86 392.785 54.96C392.491 55.0533 392.175 55.1 391.835 55.1ZM397.976 49.9C398.422 49.9 398.799 49.9667 399.106 50.1C399.419 50.2267 399.669 50.4033 399.856 50.63C400.049 50.85 400.186 51.0967 400.266 51.37L398.986 51.83C398.919 51.53 398.806 51.3033 398.646 51.15C398.486 50.9967 398.269 50.92 397.996 50.92C397.742 50.92 397.526 50.98 397.346 51.1C397.166 51.2133 397.029 51.39 396.936 51.63C396.842 51.8633 396.796 52.1567 396.796 52.51C396.796 52.8633 396.842 53.1567 396.936 53.39C397.036 53.6233 397.176 53.7967 397.356 53.91C397.542 54.0233 397.759 54.08 398.006 54.08C398.206 54.08 398.376 54.0467 398.516 53.98C398.656 53.9067 398.769 53.8033 398.856 53.67C398.949 53.5367 399.012 53.3767 399.046 53.19L400.286 53.59C400.212 53.89 400.076 54.1533 399.876 54.38C399.676 54.6067 399.419 54.7833 399.106 54.91C398.792 55.0367 398.429 55.1 398.016 55.1C397.502 55.1 397.049 54.9967 396.656 54.79C396.262 54.5833 395.959 54.2867 395.746 53.9C395.532 53.5133 395.426 53.0467 395.426 52.5C395.426 51.9533 395.532 51.4867 395.746 51.1C395.959 50.7133 396.259 50.4167 396.646 50.21C397.032 50.0033 397.476 49.9 397.976 49.9ZM403.49 55.1C403.157 55.1 402.857 55.04 402.59 54.92C402.323 54.8 402.11 54.61 401.95 54.35C401.797 54.0833 401.72 53.74 401.72 53.32V50H403.09V52.99C403.09 53.3767 403.17 53.6467 403.33 53.8C403.49 53.9467 403.72 54.02 404.02 54.02C404.16 54.02 404.297 53.9967 404.43 53.95C404.563 53.8967 404.68 53.8167 404.78 53.71C404.887 53.6033 404.97 53.4667 405.03 53.3C405.09 53.1267 405.12 52.9233 405.12 52.69V50H406.49V55H405.27L405.22 54.13C405.053 54.4633 404.823 54.71 404.53 54.87C404.243 55.0233 403.897 55.1 403.49 55.1ZM408.332 55V50H409.522L409.612 50.98C409.745 50.6333 409.938 50.3667 410.192 50.18C410.452 49.9933 410.775 49.9 411.162 49.9C411.275 49.9 411.378 49.91 411.472 49.93C411.565 49.95 411.642 49.9767 411.702 50.01L411.542 51.16C411.475 51.1333 411.392 51.1133 411.292 51.1C411.198 51.0867 411.075 51.08 410.922 51.08C410.722 51.08 410.528 51.13 410.342 51.23C410.155 51.3233 410.002 51.47 409.882 51.67C409.762 51.8633 409.702 52.11 409.702 52.41V55H408.332ZM415.173 55.1C414.646 55.1 414.186 54.9967 413.793 54.79C413.406 54.5833 413.106 54.2867 412.893 53.9C412.679 53.5133 412.573 53.0467 412.573 52.5C412.573 51.9533 412.679 51.4867 412.893 51.1C413.106 50.7133 413.403 50.4167 413.783 50.21C414.169 50.0033 414.609 49.9 415.103 49.9C415.609 49.9 416.039 50.0033 416.393 50.21C416.746 50.41 417.016 50.6867 417.203 51.04C417.389 51.3867 417.483 51.7833 417.483 52.23C417.483 52.3633 417.479 52.49 417.473 52.61C417.466 52.73 417.456 52.8367 417.443 52.93H413.453V51.98H416.843L416.183 52.22C416.183 51.8 416.086 51.4767 415.893 51.25C415.706 51.0233 415.439 50.91 415.093 50.91C414.839 50.91 414.619 50.97 414.433 51.09C414.253 51.21 414.116 51.39 414.023 51.63C413.929 51.8633 413.883 52.16 413.883 52.52C413.883 52.8733 413.933 53.1667 414.033 53.4C414.139 53.6267 414.286 53.7967 414.473 53.91C414.666 54.0233 414.896 54.08 415.163 54.08C415.456 54.08 415.693 54.0233 415.873 53.91C416.053 53.7967 416.193 53.64 416.293 53.44L417.383 53.86C417.276 54.12 417.113 54.3433 416.893 54.53C416.679 54.7167 416.423 54.86 416.123 54.96C415.829 55.0533 415.513 55.1 415.173 55.1ZM428.736 50H430.196L428.596 55H427.016L425.926 51.6L424.876 55H423.296L421.696 50H423.156L424.156 53.83L425.266 50H426.626L427.746 53.83L428.736 50ZM432.135 49.28C431.849 49.28 431.635 49.22 431.495 49.1C431.355 48.9733 431.285 48.79 431.285 48.55C431.285 48.3033 431.355 48.12 431.495 48C431.635 47.8733 431.849 47.81 432.135 47.81C432.422 47.81 432.635 47.8733 432.775 48C432.915 48.12 432.985 48.3033 432.985 48.55C432.985 48.79 432.915 48.9733 432.775 49.1C432.635 49.22 432.422 49.28 432.135 49.28ZM432.815 50V55H431.445V50H432.815ZM436.438 48.47V53.37C436.438 53.61 436.498 53.7867 436.618 53.9C436.744 54.0067 436.914 54.06 437.128 54.06C437.294 54.06 437.441 54.0367 437.568 53.99C437.694 53.9367 437.808 53.8667 437.908 53.78L438.128 54.69C437.968 54.8167 437.768 54.9167 437.528 54.99C437.288 55.0633 437.034 55.1 436.768 55.1C436.434 55.1 436.138 55.05 435.878 54.95C435.624 54.85 435.424 54.69 435.278 54.47C435.138 54.25 435.068 53.9567 435.068 53.59V48.85L436.438 48.47ZM438.038 50V51.02H434.148V50H438.038ZM439.443 55V47.81H440.813V50.85C440.973 50.53 441.193 50.2933 441.473 50.14C441.753 49.98 442.069 49.9 442.423 49.9C442.769 49.9 443.076 49.9667 443.343 50.1C443.616 50.2333 443.829 50.4367 443.983 50.71C444.143 50.9767 444.223 51.3133 444.223 51.72V55H442.853V52.12C442.853 51.6867 442.769 51.39 442.603 51.23C442.436 51.0633 442.223 50.98 441.963 50.98C441.769 50.98 441.583 51.0267 441.403 51.12C441.229 51.2067 441.086 51.3533 440.973 51.56C440.866 51.76 440.813 52.0267 440.813 52.36V55H439.443ZM451.231 55.1C450.897 55.1 450.597 55.04 450.331 54.92C450.064 54.8 449.851 54.61 449.691 54.35C449.537 54.0833 449.461 53.74 449.461 53.32V50H450.831V52.99C450.831 53.3767 450.911 53.6467 451.071 53.8C451.231 53.9467 451.461 54.02 451.761 54.02C451.901 54.02 452.037 53.9967 452.171 53.95C452.304 53.8967 452.421 53.8167 452.521 53.71C452.627 53.6033 452.711 53.4667 452.771 53.3C452.831 53.1267 452.861 52.9233 452.861 52.69V50H454.231V55H453.011L452.961 54.13C452.794 54.4633 452.564 54.71 452.271 54.87C451.984 55.0233 451.637 55.1 451.231 55.1ZM458.072 55.1C457.566 55.1 457.102 55.01 456.682 54.83C456.269 54.65 455.932 54.3967 455.672 54.07L456.462 53.27C456.622 53.51 456.836 53.7067 457.102 53.86C457.369 54.0133 457.686 54.09 458.052 54.09C458.312 54.09 458.519 54.0533 458.672 53.98C458.832 53.9 458.912 53.7767 458.912 53.61C458.912 53.5033 458.876 53.4133 458.802 53.34C458.729 53.26 458.582 53.1967 458.362 53.15L457.482 52.97C456.902 52.85 456.489 52.67 456.242 52.43C456.002 52.1833 455.882 51.8667 455.882 51.48C455.882 51.2067 455.962 50.95 456.122 50.71C456.289 50.47 456.536 50.2767 456.862 50.13C457.189 49.9767 457.596 49.9 458.082 49.9C458.582 49.9 459.016 49.98 459.382 50.14C459.756 50.2933 460.049 50.5233 460.262 50.83L459.442 51.63C459.296 51.3967 459.102 51.22 458.862 51.1C458.629 50.9733 458.382 50.91 458.122 50.91C457.936 50.91 457.776 50.93 457.642 50.97C457.509 51.01 457.409 51.0667 457.342 51.14C457.276 51.2067 457.242 51.2933 457.242 51.4C457.242 51.5067 457.289 51.6 457.382 51.68C457.476 51.7533 457.646 51.8167 457.892 51.87L458.912 52.08C459.406 52.18 459.759 52.35 459.972 52.59C460.186 52.8233 460.292 53.1067 460.292 53.44C460.292 53.76 460.206 54.0467 460.032 54.3C459.866 54.5467 459.616 54.7433 459.282 54.89C458.956 55.03 458.552 55.1 458.072 55.1Z" fill="url(#paint4_linear_770_1183)"/>
<rect x="285.5" y="38.5" width="187" height="27" rx="13.5" stroke="#2F1566"/>
<path d="M151.5 160C151.5 172.426 141.426 182.5 129 182.5C116.574 182.5 106.5 172.426 106.5 160C106.5 147.574 116.574 137.5 129 137.5C141.426 137.5 151.5 147.574 151.5 160Z" fill="#D3BBFF" stroke="#7A52AE"/>
<path d="M131.148 165.599L134.288 144.954H123.711L126.851 165.599H131.148Z" fill="#644799"/>
<path d="M128.999 167.217C128.224 167.215 127.466 167.444 126.821 167.874C126.175 168.304 125.672 168.915 125.374 169.631C125.077 170.347 124.998 171.135 125.149 171.895C125.299 172.656 125.672 173.355 126.219 173.903C126.767 174.452 127.465 174.826 128.226 174.978C128.986 175.129 129.774 175.052 130.49 174.756C131.207 174.459 131.819 173.957 132.25 173.313C132.681 172.668 132.911 171.91 132.911 171.135C132.912 170.621 132.811 170.111 132.615 169.636C132.419 169.161 132.131 168.729 131.768 168.365C131.404 168.001 130.973 167.712 130.498 167.515C130.023 167.318 129.514 167.217 128.999 167.217Z" fill="#644799"/>
</g>
<rect x="1" y="1" width="502" height="300" rx="7" stroke="#2A194A" stroke-width="2"/>
<defs>
<filter id="filter0_f_770_1183" x="239" y="63" width="138" height="108.5" filterUnits="userSpaceOnUse" color-interpolation-filters="sRGB">
<feFlood flood-opacity="0" result="BackgroundImageFix"/>
<feBlend mode="normal" in="SourceGraphic" in2="BackgroundImageFix" result="shape"/>
<feGaussianBlur stdDeviation="1" result="effect1_foregroundBlur_770_1183"/>
</filter>
<filter id="filter1_f_770_1183" x="126" y="148.5" width="58.5" height="90.5" filterUnits="userSpaceOnUse" color-interpolation-filters="sRGB">
<feFlood flood-opacity="0" result="BackgroundImageFix"/>
<feBlend mode="normal" in="SourceGraphic" in2="BackgroundImageFix" result="shape"/>
<feGaussianBlur stdDeviation="1" result="effect1_foregroundBlur_770_1183"/>
</filter>
<linearGradient id="paint0_linear_770_1183" x1="0" y1="0" x2="504" y2="0" gradientUnits="userSpaceOnUse">
<stop stop-color="#0A051F" stop-opacity="0.24"/>
<stop offset="0.5" stop-color="#7A52AE"/>
<stop offset="1" stop-color="#0A051F" stop-opacity="0.24"/>
</linearGradient>
<linearGradient id="paint1_linear_770_1183" x1="103.5" y1="244.667" x2="103.5" y2="257.334" gradientUnits="userSpaceOnUse">
<stop stop-color="#E9E9EB"/>
<stop offset="1" stop-color="#CAC9CD"/>
</linearGradient>
<linearGradient id="paint2_linear_770_1183" x1="138.5" y1="245" x2="138.5" y2="257" gradientUnits="userSpaceOnUse">
<stop stop-color="#E9E9EB"/>
<stop offset="1" stop-color="#CAC9CD"/>
</linearGradient>
<linearGradient id="paint3_linear_770_1183" x1="305" y1="45.3335" x2="305" y2="58.6668" gradientUnits="userSpaceOnUse">
<stop stop-color="#E9E9EB"/>
<stop offset="1" stop-color="#CAC9CD"/>
</linearGradient>
<linearGradient id="paint4_linear_770_1183" x1="389" y1="46" x2="389" y2="58" gradientUnits="userSpaceOnUse">
<stop stop-color="#E9E9EB"/>
<stop offset="1" stop-color="#CAC9CD"/>
</linearGradient>
<clipPath id="clip0_770_1183">
<rect width="504" height="302" rx="8" fill="white"/>
</clipPath>
</defs>
</svg>
